<?xml version="1.0" encoding="utf-8"?>
<!-- Generator: Adobe Illustrator 23.0.2, SVG Export Plug-In . SVG Version: 6.00 Build 0)  -->
<svg version="1.1" id="레이어_1" xmlns="http://www.w3.org/2000/svg" xmlns:xlink="http://www.w3.org/1999/xlink" x="0px"
	 y="0px" viewBox="0 0 450 450" style="enable-background:new 0 0 450 450;" xml:space="preserve">
<style type="text/css">
	.st0{fill:#CA434B;}
	.st1{fill:#FFF8EE;}
</style>
<circle class="st0" cx="225" cy="225" r="225"/>
<g>
	<path class="st1" d="M67.9,255.5h19.9V197H71v-11.4c9.3-1.8,15.6-4.1,21.5-7.8h13.6v77.6h17.4v14.9H67.9V255.5z"/>
	<path class="st1" d="M134.5,259.5l8.5-11.8c5.3,5.1,11.8,9.4,20.4,9.4c9.6,0,16.4-6.1,16.4-17c0-10.8-6.3-16.8-15.6-16.8
		c-5.5,0-8.5,1.4-13.9,4.9l-8.4-5.5l2.5-44.9h49.5v15.4h-33.6l-1.8,19.6c3.6-1.8,6.9-2.6,11.1-2.6c15.5,0,28.5,9.3,28.5,29.4
		c0,20.6-15.2,32.5-32.4,32.5C151.1,272.1,141.4,266.4,134.5,259.5z"/>
	<path class="st1" d="M210.4,235.5c0-23.4,16.8-36.9,35.8-36.9c8.6,0,15.3,3.4,20.4,7.8l-8.8,11.9c-3.5-3-6.8-4.6-10.8-4.6
		c-10.6,0-17.9,8.6-17.9,21.9c0,13.1,7.3,21.6,17.4,21.6c5,0,9.8-2.4,13.6-5.6l7.3,12.1c-6.6,5.9-15.1,8.5-22.9,8.5
		C225.1,272.1,210.4,258.6,210.4,235.5z"/>
	<path class="st1" d="M280.6,200.4h15l1.3,9.4h0.5c5.9-6.1,12.4-11.1,21.5-11.1c10,0,15.9,4.5,19.3,12.3
		c6.4-6.8,13.1-12.3,22.3-12.3c14.9,0,21.8,10.5,21.8,28.1v43.6h-18.4V229c0-10.8-3.1-14.6-9.8-14.6c-4,0-8.5,2.6-13.5,7.9v48.1
		h-18.4V229c0-10.8-3.1-14.6-9.8-14.6c-4,0-8.5,2.6-13.5,7.9v48.1h-18.3V200.4z"/>
</g>
</svg>
