<?xml version="1.0" encoding="utf-8"?>
<!-- Generator: Adobe Illustrator 23.0.2, SVG Export Plug-In . SVG Version: 6.00 Build 0)  -->
<svg version="1.1" id="레이어_1" xmlns="http://www.w3.org/2000/svg" xmlns:xlink="http://www.w3.org/1999/xlink" x="0px"
	 y="0px" viewBox="0 0 450 450" style="enable-background:new 0 0 450 450;" xml:space="preserve">
<style type="text/css">
	.st0{fill:#CA434B;}
	.st1{fill:#FFF8EE;}
</style>
<g>
	<circle class="st0" cx="225" cy="225" r="225"/>
</g>
<g>
	<path class="st1" d="M65.9,260.6c25.1-22.5,40-39.9,40-54.1c0-9.4-5.1-15-13.9-15c-6.8,0-12.4,4.4-17,9.5l-10-10
		c8.5-9,16.8-14,29.4-14c17.5,0,29.1,11.3,29.1,28.5c0,16.8-13.9,34.7-30.8,51.2c4.6-0.5,10.8-1,15-1h20.1v15.5h-62V260.6z"/>
	<path class="st1" d="M139.6,224.6c0-32,12.5-47.6,31.4-47.6c18.7,0,31.2,15.8,31.2,47.6c0,31.9-12.5,48.4-31.2,48.4
		C152.1,273,139.6,256.5,139.6,224.6z M184.9,224.6c0-25.9-6-33.4-13.9-33.4c-8,0-14,7.5-14,33.4c0,26,6,34,14,34
		C178.9,258.6,184.9,250.6,184.9,224.6z"/>
	<path class="st1" d="M213.2,236.4c0-23.4,16.8-36.9,35.8-36.9c8.6,0,15.3,3.4,20.4,7.8l-8.8,11.9c-3.5-3-6.8-4.6-10.8-4.6
		c-10.6,0-17.9,8.6-17.9,21.9c0,13.1,7.3,21.6,17.4,21.6c5,0,9.8-2.4,13.6-5.6l7.3,12.1c-6.6,5.9-15.1,8.5-22.9,8.5
		C228,273,213.2,259.5,213.2,236.4z"/>
	<path class="st1" d="M283.5,201.3h15l1.3,9.4h0.5c5.9-6.1,12.4-11.1,21.5-11.1c10,0,15.9,4.5,19.3,12.3
		c6.4-6.8,13.1-12.3,22.3-12.3c14.9,0,21.8,10.5,21.8,28.1v43.6h-18.4v-41.4c0-10.8-3.1-14.6-9.8-14.6c-4,0-8.5,2.6-13.5,7.9v48.1
		H325v-41.4c0-10.8-3.1-14.6-9.8-14.6c-4,0-8.5,2.6-13.5,7.9v48.1h-18.3V201.3z"/>
</g>
</svg>
