<?xml version="1.0" encoding="utf-8"?>
<!-- Generator: Adobe Illustrator 23.0.2, SVG Export Plug-In . SVG Version: 6.00 Build 0)  -->
<svg version="1.1" id="레이어_1" xmlns="http://www.w3.org/2000/svg" xmlns:xlink="http://www.w3.org/1999/xlink" x="0px"
	 y="0px" viewBox="0 0 500 500" style="enable-background:new 0 0 500 500;" xml:space="preserve">
<style type="text/css">
	.st0{fill:#CA434B;}
	.st1{fill:#FFF8EE;}
</style>
<g>
	<g>
		<circle class="st0" cx="250" cy="250" r="250"/>
	</g>
</g>
<g>
	<path class="st1" d="M126.8,190.8h32.5c36.2,0,58.6,18.7,58.6,58.7c0,39.8-22.4,59.7-57.3,59.7h-33.8V190.8z M157.8,290.2
		c22.1,0,35.8-11.8,35.8-40.6c0-29-13.8-39.8-35.8-39.8h-7.4v80.5H157.8z"/>
	<path class="st1" d="M241,190.8h23.7v118.4H241V190.8z"/>
	<path class="st1" d="M313.8,265.8l-35.5-75h25.1l11.8,28.8c3.4,8.8,6.6,17.1,10.2,26.2h0.6c3.7-9.1,7.2-17.4,10.6-26.2l11.8-28.8
		h24.6l-35.7,75v43.4h-23.7V265.8z"/>
</g>
</svg>
