<?xml version="1.0" encoding="utf-8"?>
<!-- Generator: Adobe Illustrator 23.0.2, SVG Export Plug-In . SVG Version: 6.00 Build 0)  -->
<svg version="1.1" id="Layer_1" xmlns="http://www.w3.org/2000/svg" xmlns:xlink="http://www.w3.org/1999/xlink" x="0px" y="0px"
	 viewBox="0 0 500 500" style="enable-background:new 0 0 500 500;" xml:space="preserve">
<style type="text/css">
	.st0{fill:#CA434B;}
	.st1{fill:#FFF8EE;stroke:#FFF8EE;stroke-width:10;stroke-miterlimit:10;}
</style>
<path class="st0" d="M250,0c138.1,0,250,111.9,250,250c0,138.1-111.9,250-250,250C111.9,500,0,388.1,0,250C0,111.9,111.9,0,250,0"/>
<path class="st1" d="M243.7,92.2c3.1,0,5.7,2.6,5.7,5.7v185.3l55.5-55.4c1.1-1.1,2.6-1.7,4-1.7c1.5,0,2.9,0.6,4,1.7
	c2.2,2.2,2.2,5.8,0,8.1l-64.2,64.2c-0.6,1.1-1.6,2-2.8,2.5c-0.9,0.5-1.8,0.7-2.8,0.7c-0.1,0-0.2,0-0.3,0c-0.1,0-0.2,0-0.3,0
	c-1.5,0-2.9-0.5-4-1.7l-65.8-65.8c-2.2-2.2-2.2-5.8,0-8.1c1.1-1.1,2.6-1.7,4-1.7c1.5,0,2.9,0.6,4,1.7l57.4,57.3V97.9
	C238,94.8,240.5,92.2,243.7,92.2"/>
<path class="st1" d="M350,298.6c3.1,0,5.7,2.6,5.7,5.7v64.6c0,1.7-0.7,3.1-1.8,4.2c-1,1.1-2.5,1.8-4.2,1.8H150.3
	c-1.6,0-3.1-0.7-4.2-1.8c-1.1-1-1.8-2.5-1.8-4.2v-64.6c0-3.1,2.6-5.7,5.7-5.7c3.1,0,5.7,2.6,5.7,5.7v59.2h188.6v-59.2
	C344.3,301.1,346.9,298.6,350,298.6"/>
</svg>
