<?xml version="1.0" encoding="utf-8"?>
<!-- Generator: Adobe Illustrator 23.0.2, SVG Export Plug-In . SVG Version: 6.00 Build 0)  -->
<svg version="1.1" id="Layer_1" xmlns="http://www.w3.org/2000/svg" xmlns:xlink="http://www.w3.org/1999/xlink" x="0px" y="0px"
	 viewBox="0 0 500 500" style="enable-background:new 0 0 500 500;" xml:space="preserve">
<style type="text/css">
	.st0{fill:#CA434B;}
	.st1{fill:#FFF8EE;}
</style>
<g id="레이어_1">
	<circle class="st0" cx="250" cy="250" r="250"/>
</g>
<path class="st1" d="M183.5,245.6"/>
<g>
	<path class="st1" d="M427.6,296.3c0,0,0.6-26.8-32.3-35.5c7.4-61.6-6.5-94.1-6.5-94.1c-22.5-49.5-66.1-70.8-98.2-79.9
		c-22.4-6.4-55.4-6.5-74.2-1.9c-32.4,8-81,28.6-105.2,81.8c0,0-13.9,32.5-6.5,94.1c-32.9,8.7-32.3,35.5-32.3,35.5s-0.1,1.9,0,2.5
		c-0.1,15.8,10.7,27.2,17.7,32.3c6.3,5.1,15.2,8.9,22.1,10.1c4.3,0.6,7.3,0.6,9.4,0.1c1.6,6.6,2.8,11.5,3.3,12.7
		c0,0,13,32.8,56.7,49.2c0,0,16.4,8.2,45.4,13.1c16.8,2.1,26.9,2.8,43.1,0.5c30.8-4.8,48.2-13.5,48.2-13.5
		c43.8-16.4,56.7-49.2,56.7-49.2c0.5-1.2,1.8-6.1,3.3-12.7c2,0.5,5,0.5,9.4-0.1c7-1.3,15.8-5.1,22.2-10.1c7-5.1,17.7-16.5,17.7-32.3
		C427.8,298.2,427.6,296.3,427.6,296.3z M286.6,98.7c29.8,8.4,70.7,28,91.7,74.3c0,0,13.2,30.9,5.7,89.5c-2.6,0.1-6.5,0.2-9,0.3
		c-3.3,0.1-6.6,0.1-9.9,0.1c-78,0-152.4-22.6-219.9-63.5c-11.7-7.1-20.7-13.5-26.2-18.8c1.4-5.1,2.5-7.7,2.5-7.7
		c22.7-49.9,68.5-68.8,98.5-76C237,92.9,266.2,93,286.6,98.7z M120.4,285.9l-4.4-23.2c-3.8-29.8-2.3-52.4,0.1-67.5
		c6.6,5.5,17.4,12.4,28.7,19.2c12.9,7.8,26,14.9,39.3,21.3c-11.9,24-33.5,42.2-59.8,49.5c-0.6,0.2-1.2,0.3-1.7,0.4l1.7-0.4
		C122.8,285.6,121.5,285.8,120.4,285.9z M99.5,325.6c-9.5-5.5-13.8-12-15.2-16.6c-2.5-7.6-1.5-14.1-0.6-17.1
		c1.9-7,5.7-12.7,12.5-16.6c2.8-1.4,6.2-2.6,10.4-3.5l3.3,17.3c0,0,5,23,9.2,41.7C115.9,331.3,110.9,331.2,99.5,325.6z M365.7,346.3
		c0,0-12,30.4-52.5,45.6c0,0-13.7,6.9-38.2,11.4c-20.3,3.8-27.3,3.8-47.6,0.4c-25.9-4.5-40.4-11.8-40.4-11.8
		c-40.5-15.2-52.5-45.6-52.5-45.6c-1.3-3.1-7.8-32.1-11.4-48.7c32.6-5.2,59.7-27.1,72.2-56.6c53.4,24,110.4,37,169.4,37
		c3.3,0,6.6,0,9.9-0.1c1.9,0,4.5-0.1,6.8-0.2l-1.6,8.6C379.6,286.2,367.6,341.9,365.7,346.3z M415.7,309
		c-1.4,4.6-5.7,11.1-15.2,16.6c-11.4,5.6-16.3,5.7-19.5,5.2c4.3-18.7,9.2-41.7,9.2-41.7l3.3-17.3c4.2,0.9,7.7,2,10.4,3.5
		c6.8,3.9,10.5,9.6,12.5,16.6C417.1,294.9,418.2,301.4,415.7,309z"/>
	<path class="st1" d="M205.5,290c-3.2,0-5.8,2.5-6,5.7h0v16.5h0c0,0.1,0,0.2,0,0.3c0,3.3,2.7,6,6,6s6-2.7,6-6c0-0.1,0-0.2,0-0.3h0
		v-16.5h0C211.4,292.5,208.8,290,205.5,290z"/>
	<path class="st1" d="M294.1,290c-3.2,0-5.8,2.5-6,5.7h0v16.5h0c0,0.1,0,0.2,0,0.3c0,3.3,2.7,6,6,6c3.3,0,6-2.7,6-6
		c0-0.1,0-0.2,0-0.3h0v-16.5h0C300,292.5,297.4,290,294.1,290z"/>
	<path class="st1" d="M271.7,336.5c-1.3,0-2.5,0.5-3.6,1.2c-1.8,1.4-5,2.6-10.1,2.6c-2,0-8.2,0-8.2,0s-6.2,0-8.2,0
		c-5.1,0-8.2-1.3-10-2.6c-1-0.7-2.2-1.2-3.6-1.2c-3.3,0-6,2.7-6,6c0,2.2,0.6,3.5,3,5.2v0c4.6,3.3,9.7,4,16,4c2.2,0.1,8.9,0,8.9,0
		s6.6,0.1,8.9,0c6.3,0,11.4-0.6,16-4v0c2.4-1.7,3-3,3-5.2C277.7,339.2,275,336.5,271.7,336.5z"/>
</g>
</svg>
