<?xml version="1.0" encoding="utf-8"?>
<!-- Generator: Adobe Illustrator 16.0.0, SVG Export Plug-In . SVG Version: 6.00 Build 0)  -->
<!DOCTYPE svg PUBLIC "-//W3C//DTD SVG 1.1//EN" "http://www.w3.org/Graphics/SVG/1.1/DTD/svg11.dtd">
<svg version="1.1" id="Layer_1" xmlns="http://www.w3.org/2000/svg" xmlns:xlink="http://www.w3.org/1999/xlink" x="0px" y="0px"
	 viewBox="165 75 462 462" enable-background="new 165 75 462 462" xml:space="preserve">
<g id="레이어_1">
	<circle fill="#F5B1A2" cx="396" cy="306" r="231"/>
</g>
<path fill="#FFF8EE" d="M334.554,301.934"/>
<g>
	<path fill="#FFF8EE" d="M560.103,348.781c0,0,0.555-24.763-29.846-32.802c6.838-56.918-6.006-86.948-6.006-86.948
		c-20.79-45.737-61.076-65.42-90.736-73.827c-20.698-5.914-51.19-6.006-68.561-1.756c-29.938,7.392-74.844,26.427-97.205,75.583
		c0,0-12.843,30.029-6.006,86.948c-30.399,8.039-29.845,32.802-29.845,32.802s-0.092,1.756,0,2.311
		c-0.092,14.599,9.887,25.133,16.355,29.845c5.821,4.714,14.044,8.225,20.42,9.334c3.973,0.554,6.745,0.554,8.686,0.092
		c1.479,6.099,2.587,10.626,3.049,11.735c0,0,12.012,30.307,52.391,45.46c0,0,15.154,7.577,41.95,12.104
		c15.522,1.94,24.855,2.588,39.823,0.462c28.459-4.435,44.537-12.474,44.537-12.474c40.472-15.155,52.392-45.462,52.392-45.462
		c0.463-1.109,1.663-5.636,3.049-11.735c1.848,0.463,4.62,0.463,8.686-0.092c6.469-1.201,14.599-4.712,20.513-9.333
		c6.468-4.712,16.354-15.245,16.354-29.845C560.287,350.536,560.103,348.781,560.103,348.781z M429.818,166.198
		c27.535,7.762,65.327,25.871,84.73,68.653c0,0,12.197,28.552,5.268,82.698c-2.402,0.091-6.007,0.185-8.316,0.277
		c-3.049,0.091-6.099,0.091-9.147,0.091c-72.072,0-140.818-20.882-203.188-58.673c-10.811-6.561-19.126-12.474-24.208-17.372
		c1.293-4.712,2.31-7.114,2.31-7.114c20.975-46.107,63.294-63.571,91.014-70.225C383.988,160.839,410.97,160.932,429.818,166.198z
		 M276.25,339.17l-4.065-21.436c-3.511-27.535-2.125-48.417,0.092-62.37c6.099,5.082,16.078,11.458,26.519,17.741
		c11.919,7.206,24.024,13.768,36.313,19.681c-10.996,22.176-30.954,38.992-55.255,45.737c-0.554,0.185-1.108,0.277-1.571,0.369
		l1.571-0.369C278.467,338.894,277.266,339.079,276.25,339.17z M256.938,375.854c-8.778-5.082-12.751-11.088-14.045-15.339
		c-2.31-7.022-1.386-13.028-0.554-15.8c1.755-6.468,5.267-11.735,11.55-15.338c2.587-1.294,5.729-2.402,9.61-3.235l3.049,15.985
		c0,0,4.62,21.253,8.5,38.531C272.092,381.121,267.472,381.029,256.938,375.854z M502.907,394.981c0,0-11.088,28.09-48.511,42.135
		c0,0-12.658,6.375-35.297,10.533c-18.757,3.512-25.225,3.512-43.983,0.37c-23.932-4.158-37.33-10.903-37.33-10.903
		c-37.422-14.045-48.51-42.135-48.51-42.135c-1.201-2.864-7.208-29.66-10.534-44.999c30.123-4.805,55.163-25.041,66.713-52.298
		c49.341,22.176,102.009,34.188,156.526,34.188c3.049,0,6.098,0,9.147-0.093c1.755,0,4.157-0.092,6.283-0.185l-1.479,7.946
		C515.75,339.448,504.662,390.915,502.907,394.981z M549.106,360.515c-1.293,4.25-5.267,10.257-14.044,15.339
		c-10.534,5.174-15.062,5.268-18.019,4.805c3.974-17.278,8.502-38.53,8.502-38.53l3.048-15.985c3.881,0.832,7.115,1.848,9.609,3.234
		c6.283,3.603,9.702,8.87,11.551,15.338C550.4,347.487,551.417,353.493,549.106,360.515z"/>
	<path fill="#FFF8EE" d="M354.882,342.96c-2.957,0-5.359,2.31-5.544,5.267l0,0v15.245l0,0c0,0.092,0,0.186,0,0.278
		c0,3.048,2.494,5.544,5.544,5.544c3.05,0,5.544-2.495,5.544-5.544c0-0.093,0-0.187,0-0.278l0,0v-15.245l0,0
		C360.333,345.27,357.931,342.96,354.882,342.96z"/>
	<path fill="#FFF8EE" d="M436.748,342.96c-2.956,0-5.358,2.31-5.544,5.267l0,0v15.245l0,0c0,0.092,0,0.186,0,0.278
		c0,3.048,2.495,5.544,5.544,5.544c3.05,0,5.545-2.495,5.545-5.544c0-0.093,0-0.187,0-0.278l0,0v-15.245l0,0
		C442.2,345.27,439.798,342.96,436.748,342.96z"/>
	<path fill="#FFF8EE" d="M416.051,385.926c-1.201,0-2.311,0.462-3.326,1.108c-1.664,1.294-4.62,2.402-9.332,2.402
		c-1.849,0-7.578,0-7.578,0s-5.729,0-7.578,0c-4.712,0-7.577-1.201-9.24-2.402c-0.924-0.646-2.033-1.108-3.326-1.108
		c-3.049,0-5.545,2.494-5.545,5.544c0,2.032,0.555,3.233,2.772,4.805l0,0c4.25,3.048,8.963,3.695,14.784,3.695
		c2.033,0.092,8.224,0,8.224,0s6.099,0.092,8.224,0c5.821,0,10.533-0.555,14.784-3.695l0,0c2.218-1.571,2.771-2.772,2.771-4.805
		C421.595,388.42,419.1,385.926,416.051,385.926z"/>
</g>
</svg>
