<?xml version="1.0" encoding="utf-8"?>
<!-- Generator: Adobe Illustrator 23.0.2, SVG Export Plug-In . SVG Version: 6.00 Build 0)  -->
<svg version="1.1" id="Capa_1" xmlns="http://www.w3.org/2000/svg" xmlns:xlink="http://www.w3.org/1999/xlink" x="0px" y="0px"
	 viewBox="0 0 500 500" style="enable-background:new 0 0 500 500;" xml:space="preserve">
<style type="text/css">
	.st0{fill:#CA434B;}
	.st1{fill:#FFF8EE;}
</style>
<circle class="st0" cx="250" cy="250" r="250"/>
<g>
	<path class="st1" d="M138.9,370.2h-31.1c-10.6,0-19.2-8.6-19.2-19.2v-30.1h26.1v12.2c0,2.7,2.2,4.8,4.8,4.8h60.1
		c2.7,0,4.8-2.2,4.8-4.8v-12.2h67.2c2.7,0,4.8-2.2,4.8-4.8s-2.2-4.8-4.8-4.8h-98.5v-23.8h5.4c6.6,0,12-5.4,12-12v-8.7h1.1
		c11.3,0,21.3-7.7,24.2-18.5l5.6-21c1.3-4.9,5.7-8.2,10.8-8.2h74.2c5.3,0,9.5,4.2,9.5,9.5v73.4c0,5.3-4.2,9.5-9.5,9.5h-15.7
		c-2.7,0-4.8,2.1-4.8,4.8c0,2.7,2.2,4.8,4.8,4.8h15.7c10.5,0,19-8.5,19-19v-73.4c0-10.5-8.5-19-19-19h-74.2c-9.4,0-17.5,6.3-20,15.3
		l-5.6,21c-1.8,6.8-8,11.5-15,11.5h-47.5c-4.1,0-7.8-1.6-10.6-4.7c-2.7-3-4-6.9-3.7-11l6.9-71.9c1.4-14.6,13.5-25.7,28.2-25.7h32.6
		c2.7,0,4.8-2.2,4.8-4.8s-2.2-4.8-4.8-4.8h-23.1v-11.7c0-2.7-2.2-4.8-4.8-4.8s-4.8,2.2-4.8,4.8v11.7c-19.6,0.1-35.8,14.8-37.7,34.3
		l-6.8,72c-0.6,6.7,1.6,13.4,6.1,18.4c4.5,4.9,11,7.8,17.7,7.8h2.3v8.7c0,6.6,5.4,12,12,12h5.4v23.8H83.8c-2.7,0-4.8,2.2-4.8,4.8v35
		c0,15.8,12.9,28.7,28.7,28.7h31.1c2.7,0,4.8-2.2,4.8-4.8C143.7,372.3,141.5,370.2,138.9,370.2z M136,275.6v-8.7h25v8.7
		c0,1.3-1.1,2.4-2.4,2.4h-20.3C137,277.9,136,276.8,136,275.6z M174.9,328.3h-50.6v-7.4h50.6V328.3z"/>
	<path class="st1" d="M365.2,134.4h-5v-33.8c0-2.7-2.2-4.8-4.8-4.8h-8.9v-6.3c0-2.7-2.2-4.8-4.8-4.8c-2.7,0-4.8,2.2-4.8,4.8v6.3H328
		c-2.7,0-4.8,2.2-4.8,4.8v33.8H196.6c-2.7,0-4.8,2.2-4.8,4.8s2.2,4.8,4.8,4.8h168.5c15.6,0,28.4,12.7,28.4,28.4v178.8
		c0,10.6-8.6,19.2-19.2,19.2H158c-2.7,0-4.8,2.2-4.8,4.8c0,2.7,2.2,4.8,4.8,4.8h216.4c15.8,0,28.7-12.8,28.7-28.7V172.3
		C403.1,151.4,386.1,134.4,365.2,134.4z M332.9,105.3h17.7v29.1h-17.7V105.3z"/>
	<path class="st1" d="M350.8,208.4c-13,0-23.5,10.5-23.5,23.5c0,13,10.5,23.5,23.5,23.5c13,0,23.5-10.5,23.5-23.5
		C374.2,218.9,363.7,208.4,350.8,208.4z M350.8,246c-7.8,0-14.1-6.3-14.1-14.1s6.3-14.1,14.1-14.1c7.8,0,14.1,6.3,14.1,14.1
		C364.8,239.7,358.5,246,350.8,246z"/>
	<path class="st1" d="M268.4,180.5c2.7,0,4.8-2.2,4.8-4.8s-2.2-4.8-4.8-4.8H254c-2.7,0-4.8,2.2-4.8,4.8s2.2,4.8,4.8,4.8H268.4z"/>
	<path class="st1" d="M365.5,170.9h-74.8c-2.7,0-4.8,2.2-4.8,4.8s2.2,4.8,4.8,4.8h74.8c2.7,0,4.8-2.2,4.8-4.8
		S368.2,170.9,365.5,170.9z"/>
</g>
</svg>
