<?xml version="1.0" encoding="utf-8"?>
<!-- Generator: Adobe Illustrator 16.0.0, SVG Export Plug-In . SVG Version: 6.00 Build 0)  -->
<!DOCTYPE svg PUBLIC "-//W3C//DTD SVG 1.1//EN" "http://www.w3.org/Graphics/SVG/1.1/DTD/svg11.dtd">
<svg version="1.1" id="레이어_1" focusable="false"
	 xmlns="http://www.w3.org/2000/svg" xmlns:xlink="http://www.w3.org/1999/xlink" x="0px" y="0px" width="960px" height="560px"
	 viewBox="0 0 960 560" enable-background="new 0 0 960 560" xml:space="preserve">
<circle fill="#CA434B" cx="480" cy="280" r="280"/>
<g>
	<g>
		<path fill="none" stroke="#FFF8EE" stroke-width="10" stroke-linecap="round" stroke-linejoin="round" stroke-miterlimit="10" d="
			M443.488,107.52l72.576,36.288l-72.576,36.288c0-12.544,0-25.2,0-37.744C443.488,130.704,443.488,119.168,443.488,107.52z"/>
		
			<polyline fill="none" stroke="#FFF8EE" stroke-width="10" stroke-linecap="round" stroke-linejoin="round" stroke-miterlimit="10" points="
			342.8,200.112 342.8,142.352 443.488,142.352 		"/>
	</g>
	<g>
		
			<polygon fill="none" stroke="#FFF8EE" stroke-width="10" stroke-linecap="round" stroke-linejoin="round" stroke-miterlimit="10" points="
			651.248,243.6 614.96,316.176 578.672,243.6 		"/>
		
			<polyline fill="none" stroke="#FFF8EE" stroke-width="10" stroke-linecap="round" stroke-linejoin="round" stroke-miterlimit="10" points="
			555.2,142.912 614.96,142.912 614.96,243.6 		"/>
	</g>
	<g>
		
			<polygon fill="none" stroke="#FFF8EE" stroke-width="10" stroke-linecap="round" stroke-linejoin="round" stroke-miterlimit="10" points="
			514.271,451.36 441.696,415.072 514.271,378.783 		"/>
		
			<polyline fill="none" stroke="#FFF8EE" stroke-width="10" stroke-linecap="round" stroke-linejoin="round" stroke-miterlimit="10" points="
			615.072,355.874 615.072,415.632 514.384,415.632 		"/>
	</g>
	<g>
		
			<polygon fill="none" stroke="#FFF8EE" stroke-width="10" stroke-linecap="round" stroke-linejoin="round" stroke-miterlimit="10" points="
			306.512,312.592 342.8,240.016 379.088,312.592 		"/>
		
			<polyline fill="none" stroke="#FFF8EE" stroke-width="10" stroke-linecap="round" stroke-linejoin="round" stroke-miterlimit="10" points="
			402.557,415.632 342.8,415.632 342.8,314.944 		"/>
	</g>
</g>
</svg>
