<?xml version="1.0" encoding="utf-8"?>
<!-- Generator: Adobe Illustrator 23.0.2, SVG Export Plug-In . SVG Version: 6.00 Build 0)  -->
<svg version="1.1" id="레이어_1" xmlns="http://www.w3.org/2000/svg" xmlns:xlink="http://www.w3.org/1999/xlink" x="0px"
	 y="0px" viewBox="0 0 500 500" style="enable-background:new 0 0 500 500;" xml:space="preserve">
<style type="text/css">
	.st0{fill:#CA434B;}
	.st1{fill:none;stroke:#FFF8EE;stroke-width:10;stroke-linecap:round;stroke-linejoin:round;stroke-miterlimit:10;}
</style>
<g>
	<g>
		<circle class="st0" cx="250" cy="250" r="250"/>
	</g>
</g>
<g>
	<path class="st1" d="M221.6,298.6c-1.9-6.3-2.9-11.7-2.9-15.7c0-4.1,0.8-8.3,2.3-12.8c1.6-4.4,5.2-9.7,11.2-15.6
		c5.9-5.9,12-10.9,18.3-15c6.3-4.1,11.9-9.1,16.7-15.1c4.9-6,7.2-12.3,7.2-19.2c0-14.6-9.9-21.8-29.7-21.8c-8.1,0-15.9,1.6-23.2,4.7
		c-0.6,10.1-2.4,18.1-5.6,24.1h-27.6c-2.6-5-4.4-11.4-5.8-19.3c-1.3-7.9-2-13.4-2-16.7c0-3.3,0-5.6,0-6.7c8.3-5.7,18.6-10,30.7-13.1
		s23.8-4.7,35-4.7c21.4,0,39.1,4.9,52.9,14.7c13.8,9.8,20.7,23.8,20.7,42c0,7.9-1.7,15.2-5.1,21.9c-3.4,6.7-7.6,12.1-12.4,16.2
		c-4.9,4.1-10.2,8.3-16,12.7c-5.7,4.2-11,8.1-15.8,11.7c-10.2,7-15.4,15.3-15.4,25c0,0.8,0.1,1.7,0.3,2.7L221.6,298.6L221.6,298.6z
		 M237.7,356.9c-16.2,0-24.2-7.3-24.2-21.9c0-14.7,8.1-21.9,24.2-21.9s24.2,7.3,24.2,21.9C261.9,349.7,253.8,356.9,237.7,356.9z"/>
</g>
</svg>
