<?xml version="1.0" encoding="utf-8"?>
<!-- Generator: Adobe Illustrator 23.0.2, SVG Export Plug-In . SVG Version: 6.00 Build 0)  -->
<svg version="1.1" id="레이어_1" xmlns="http://www.w3.org/2000/svg" xmlns:xlink="http://www.w3.org/1999/xlink" x="0px"
	 y="0px" viewBox="0 0 500 500" style="enable-background:new 0 0 500 500;" xml:space="preserve">
<style type="text/css">
	.st0{fill:#CA434B;}
	.st1{fill:none;stroke:#FFF8EE;stroke-width:10;stroke-linecap:round;stroke-linejoin:round;stroke-miterlimit:10;}
	.st2{fill:none;stroke:#FFF8EE;stroke-width:10;stroke-linecap:round;stroke-miterlimit:10;}
	.st3{fill:#FFF8EE;}
</style>
<circle class="st0" cx="250" cy="250.1" r="250"/>
<rect x="102.3" y="130.7" class="st1" width="295.4" height="238.7"/>
<rect x="136.3" y="164.7" class="st1" width="227.4" height="143.8"/>
<line class="st1" x1="137.3" y1="338" x2="172.3" y2="338"/>
<line class="st2" x1="192" y1="338" x2="212" y2="338"/>
<g>
	<path class="st3" d="M162,253.7h11.1v-32.8h-9.4v-6.4c5.2-1,8.8-2.3,12-4.3h7.6v43.5h9.7v8.3H162V253.7z"/>
	<path class="st3" d="M199.3,255.9l4.8-6.6c2.9,2.9,6.6,5.3,11.4,5.3c5.4,0,9.2-3.4,9.2-9.5c0-6-3.5-9.4-8.8-9.4
		c-3.1,0-4.8,0.8-7.8,2.7l-4.7-3.1l1.4-25.1h27.7v8.6h-18.8l-1,11c2-1,3.9-1.5,6.2-1.5c8.7,0,16,5.2,16,16.5
		c0,11.6-8.5,18.2-18.1,18.2C208.6,263,203.2,259.8,199.3,255.9z"/>
	<path class="st3" d="M241.8,242.5c0-13.1,9.4-20.7,20-20.7c4.8,0,8.5,1.9,11.4,4.3l-4.9,6.7c-2-1.7-3.8-2.6-6-2.6
		c-6,0-10,4.8-10,12.3c0,7.4,4.1,12.1,9.7,12.1c2.8,0,5.5-1.3,7.6-3.2l4.1,6.8c-3.7,3.3-8.5,4.8-12.8,4.8
		C250.1,263,241.8,255.4,241.8,242.5z"/>
	<path class="st3" d="M281.1,222.8h8.4l0.7,5.3h0.3c3.3-3.4,6.9-6.2,12-6.2c5.6,0,8.9,2.5,10.8,6.9c3.6-3.8,7.4-6.9,12.5-6.9
		c8.3,0,12.2,5.9,12.2,15.8V262h-10.3v-23.2c0-6-1.8-8.2-5.5-8.2c-2.2,0-4.8,1.5-7.6,4.4v27h-10.3v-23.2c0-6-1.8-8.2-5.5-8.2
		c-2.2,0-4.8,1.5-7.6,4.4v27h-10.2V222.8z"/>
</g>
</svg>
