<?xml version="1.0" encoding="utf-8"?>
<!-- Generator: Adobe Illustrator 23.0.2, SVG Export Plug-In . SVG Version: 6.00 Build 0)  -->
<svg version="1.1" id="레이어_1" xmlns="http://www.w3.org/2000/svg" xmlns:xlink="http://www.w3.org/1999/xlink" x="0px"
	 y="0px" viewBox="0 0 500 500" style="enable-background:new 0 0 500 500;" xml:space="preserve">
<style type="text/css">
	.st0{fill:#CA434B;}
	.st1{fill:none;stroke:#FFF8EE;stroke-width:10;stroke-linecap:round;stroke-linejoin:round;stroke-miterlimit:10;}
	.st2{fill:none;stroke:#FFF8EE;stroke-width:10;stroke-linecap:round;stroke-miterlimit:10;}
	.st3{fill:#FFF8EE;}
</style>
<circle class="st0" cx="250" cy="250.1" r="250"/>
<rect x="102.3" y="130.7" class="st1" width="295.4" height="238.7"/>
<rect x="136.3" y="164.7" class="st1" width="227.4" height="143.8"/>
<line class="st1" x1="137.3" y1="339" x2="172.3" y2="339"/>
<line class="st2" x1="192" y1="339" x2="212" y2="339"/>
<g>
	<path class="st3" d="M160.9,256.6c14.1-12.6,22.4-22.3,22.4-30.3c0-5.3-2.9-8.4-7.8-8.4c-3.8,0-6.9,2.5-9.5,5.3l-5.6-5.6
		c4.8-5,9.4-7.8,16.5-7.8c9.8,0,16.3,6.3,16.3,16c0,9.4-7.8,19.5-17.2,28.7c2.6-0.3,6-0.6,8.4-0.6h11.3v8.7h-34.7V256.6z"/>
	<path class="st3" d="M202.2,236.4c0-17.9,7-26.7,17.6-26.7c10.5,0,17.5,8.8,17.5,26.7s-7,27.1-17.5,27.1
		C209.2,263.5,202.2,254.2,202.2,236.4z M227.5,236.4c0-14.5-3.4-18.7-7.8-18.7c-4.5,0-7.8,4.2-7.8,18.7c0,14.6,3.4,19,7.8,19
		C224.2,255.4,227.5,251,227.5,236.4z"/>
	<path class="st3" d="M243.4,243c0-13.1,9.4-20.7,20-20.7c4.8,0,8.5,1.9,11.4,4.3l-4.9,6.7c-2-1.7-3.8-2.6-6-2.6
		c-6,0-10,4.8-10,12.3c0,7.4,4.1,12.1,9.7,12.1c2.8,0,5.5-1.3,7.6-3.2l4.1,6.8c-3.7,3.3-8.5,4.8-12.8,4.8
		C251.7,263.5,243.4,255.9,243.4,243z"/>
	<path class="st3" d="M282.8,223.3h8.4l0.7,5.3h0.3c3.3-3.4,6.9-6.2,12-6.2c5.6,0,8.9,2.5,10.8,6.9c3.6-3.8,7.4-6.9,12.5-6.9
		c8.3,0,12.2,5.9,12.2,15.8v24.4h-10.3v-23.2c0-6-1.8-8.2-5.5-8.2c-2.2,0-4.8,1.5-7.6,4.4v27H306v-23.2c0-6-1.8-8.2-5.5-8.2
		c-2.2,0-4.8,1.5-7.6,4.4v27h-10.2V223.3z"/>
</g>
</svg>
