<?xml version="1.0" encoding="utf-8"?>
<!-- Generator: Adobe Illustrator 23.0.2, SVG Export Plug-In . SVG Version: 6.00 Build 0)  -->
<svg version="1.1" id="레이어_1" focusable="false"
	 xmlns="http://www.w3.org/2000/svg" xmlns:xlink="http://www.w3.org/1999/xlink" x="0px" y="0px" viewBox="0 0 500 500"
	 style="enable-background:new 0 0 500 500;" xml:space="preserve">
<style type="text/css">
	.st0{fill:#CA434B;}
	.st1{fill:none;stroke:#FFF8EE;stroke-width:10;stroke-linecap:round;stroke-linejoin:round;stroke-miterlimit:10;}
</style>
<circle class="st0" cx="250" cy="250" r="250"/>
<path class="st1" d="M373.5,376.3l12.7-55.4c1.4-6-1.8-12.2-7.4-14.6l-59.6-25.4c-5.2-2.2-11.3-0.7-14.9,3.7l-26.4,32.3
	c-41-19.1-74.9-52.5-94.5-94.3l32.2-26.5c4.4-3.6,5.9-9.7,3.6-15l-25.6-59.5c-2.5-5.7-8.7-8.8-14.7-7.4L123.5,127
	c-5.8,1.4-9.9,6.5-9.9,12.5c0.3,136.4,111,246.9,247.6,246.8C367,386.2,372.1,382.1,373.5,376.3z"/>
</svg>
