<?xml version="1.0" encoding="utf-8"?>
<!-- Generator: Adobe Illustrator 16.0.0, SVG Export Plug-In . SVG Version: 6.00 Build 0)  -->
<!DOCTYPE svg PUBLIC "-//W3C//DTD SVG 1.1//EN" "http://www.w3.org/Graphics/SVG/1.1/DTD/svg11.dtd">
<svg version="1.1" id="Layer_1" xmlns="http://www.w3.org/2000/svg" xmlns:xlink="http://www.w3.org/1999/xlink" x="0px" y="0px"
	viewBox="165 75 462 462" enable-background="new 165 75 462 462" xml:space="preserve">
<path fill="#F5B1A2" d="M396,75c127.604,0,231,103.396,231,231c0,127.604-103.396,231-231,231S165,433.604,165,306
	C165,178.396,268.396,75,396,75"/>
<path fill="#FFF8EE" stroke="#FFF8EE" stroke-width="10" stroke-miterlimit="10" d="M390.179,160.193
	c2.864,0,5.267,2.402,5.267,5.267v171.218l51.282-51.189c1.016-1.017,2.402-1.571,3.695-1.571c1.387,0,2.68,0.555,3.696,1.571
	c2.032,2.032,2.032,5.358,0,7.484l-59.321,59.319c-0.554,1.017-1.479,1.848-2.587,2.31c-0.832,0.463-1.664,0.647-2.588,0.647
	c-0.091,0-0.185,0-0.277,0c-0.092,0-0.185,0-0.277,0c-1.386,0-2.68-0.462-3.695-1.57l-60.799-60.799
	c-2.033-2.033-2.033-5.359,0-7.484c1.017-1.016,2.403-1.57,3.696-1.57c1.386,0,2.68,0.555,3.696,1.57l53.038,52.945V165.459
	C384.912,162.595,387.222,160.193,390.179,160.193"/>
<path fill="#FFF8EE" stroke="#FFF8EE" stroke-width="10" stroke-miterlimit="10" d="M488.4,350.906c2.864,0,5.267,2.402,5.267,5.267
	v59.691c0,1.569-0.647,2.864-1.663,3.88c-0.924,1.017-2.311,1.664-3.881,1.664H303.877c-1.478,0-2.864-0.647-3.88-1.664
	c-1.017-0.924-1.664-2.311-1.664-3.88v-59.691c0-2.864,2.402-5.267,5.267-5.267c2.864,0,5.267,2.402,5.267,5.267v54.7h174.266v-54.7
	C483.133,353.216,485.535,350.906,488.4,350.906"/>
</svg>
