<?xml version="1.0" encoding="utf-8"?>
<!-- Generator: Adobe Illustrator 23.0.2, SVG Export Plug-In . SVG Version: 6.00 Build 0)  -->
<svg version="1.1" id="레이어_1" xmlns="http://www.w3.org/2000/svg" xmlns:xlink="http://www.w3.org/1999/xlink" x="0px"
	 y="0px" viewBox="0 0 500 500" style="enable-background:new 0 0 500 500;" xml:space="preserve">
<style type="text/css">
	.st0{fill:#CA434B;}
	.st1{fill:#FFF8EE;}
</style>
<g>
	<g>
		<circle class="st0" cx="250" cy="250" r="250"/>
	</g>
</g>
<g>
	<path class="st1" d="M108.6,189.1h72.6v19.7h-49v27.4h41.6V256h-41.6v31.7H183v19.8h-74.4V189.1z"/>
	<path class="st1" d="M230.5,208.8h-33.3v-19.7h90.6v19.7h-33.6v98.7h-23.7V208.8z"/>
	<path class="st1" d="M296.1,248.8c0-39,25.1-61.9,55-61.9c15,0,27,7.2,34.7,15.2l-12.5,15c-5.9-5.8-12.8-9.9-21.8-9.9
		c-17.9,0-31.4,15.4-31.4,40.8c0,25.8,12.2,41.3,30.9,41.3c10.1,0,18.1-4.8,24.5-11.7l12.5,14.7c-9.8,11.4-22.4,17.4-37.8,17.4
		C320.4,309.7,296.1,288.3,296.1,248.8z"/>
</g>
</svg>
