<?xml version="1.0" encoding="utf-8"?>
<!-- Generator: Adobe Illustrator 16.0.0, SVG Export Plug-In . SVG Version: 6.00 Build 0)  -->
<!DOCTYPE svg PUBLIC "-//W3C//DTD SVG 1.1//EN" "http://www.w3.org/Graphics/SVG/1.1/DTD/svg11.dtd">
<svg version="1.1" id="Layer_1" xmlns="http://www.w3.org/2000/svg" xmlns:xlink="http://www.w3.org/1999/xlink" x="0px" y="0px"
	 width="960px" height="560px" viewBox="0 0 960 560" enable-background="new 0 0 960 560" xml:space="preserve">
<line fill="none" stroke="#CA434B" stroke-width="5" stroke-linecap="round" stroke-linejoin="round" stroke-miterlimit="10" x1="10.105" y1="103.789" x2="127.608" y2="103.789"/>
<line fill="none" stroke="#CA434B" stroke-width="5" stroke-linecap="round" stroke-linejoin="round" stroke-miterlimit="10" x1="265.257" y1="103.789" x2="382.76" y2="103.789"/>
<g>
	<path fill="#CA434B" d="M10.773,209.451v-4.403h53.301v-13.76h10.687v13.76h12.691c9.704,0,17.655-0.294,23.843-0.871
		c6.188-0.577,10.842-1.357,13.957-2.34l1.737,9.223c-1.336,0.443-3.228,0.823-5.68,1.133c-2.447,0.315-5.322,0.577-8.614,0.802
		c-3.297,0.224-6.946,0.4-10.954,0.534c-4.008,0.134-8.24,0.204-12.691,0.204H15.048c-1.603,0-2.714-0.337-3.339-1.005
		C11.083,212.059,10.773,210.974,10.773,209.451z M35.621,142.93h65.458v8.683H46.308v20.973c0,1.603,0.267,2.693,0.801,3.271
		c0.534,0.577,1.651,0.871,3.34,0.871h15.763c9.704,0,17.655-0.288,23.843-0.871c6.188-0.578,10.842-1.358,13.962-2.341l1.737,9.217
		c-1.336,0.444-3.228,0.823-5.68,1.133c-2.447,0.315-5.322,0.577-8.614,0.801c-3.297,0.225-6.946,0.401-10.954,0.534
		c-4.008,0.134-8.24,0.203-12.691,0.203h-21.24c-3.832,0-6.615-0.871-8.352-2.607c-1.736-1.736-2.607-4.563-2.607-8.48V142.93
		H35.621z M38.56,246.995c0-3.655,0.78-6.995,2.34-10.019c1.555-3.024,3.692-5.611,6.412-7.749c2.714-2.132,5.921-3.804,9.618-5.012
		c3.692-1.202,7.721-1.8,12.087-1.8c4.36,0,8.395,0.598,12.092,1.8c3.692,1.208,6.904,2.875,9.618,5.012
		c2.715,2.137,4.852,4.724,6.413,7.749c1.56,3.024,2.34,6.364,2.34,10.019c0,3.655-0.78,6.994-2.34,10.019
		c-1.561,3.024-3.698,5.61-6.413,7.748c-2.714,2.132-5.92,3.805-9.618,5.012c-3.698,1.203-7.727,1.801-12.092,1.801
		s-8.395-0.598-12.087-1.801c-3.697-1.208-6.904-2.875-9.618-5.012s-4.857-4.723-6.412-7.748
		C39.339,253.984,38.56,250.644,38.56,246.995z M89.055,246.995c0-2.405-0.491-4.633-1.469-6.68
		c-0.983-2.046-2.362-3.81-4.142-5.274c-1.779-1.47-3.895-2.603-6.348-3.409c-2.447-0.801-5.141-1.202-8.084-1.202
		c-2.939,0-5.632,0.395-8.08,1.202c-2.453,0.802-4.563,1.935-6.348,3.409c-1.785,1.464-3.163,3.228-4.141,5.274
		s-1.47,4.275-1.47,6.68c0,2.404,0.487,4.627,1.47,6.679c0.983,2.047,2.356,3.81,4.141,5.274c1.779,1.469,3.896,2.602,6.348,3.409
		c2.447,0.802,5.14,1.202,8.08,1.202c2.938,0,5.632-0.396,8.084-1.202c2.447-0.802,4.563-1.934,6.348-3.409
		c1.78-1.464,3.158-3.228,4.142-5.274C88.564,251.622,89.055,249.399,89.055,246.995z"/>
	<path fill="#CA434B" d="M137.681,226.022h76.679c9.704,0,17.655-0.289,23.843-0.871c6.188-0.572,10.842-1.357,13.957-2.34
		l1.736,9.223c-1.336,0.443-3.227,0.823-5.68,1.133c-2.448,0.315-5.322,0.582-8.614,0.801c-3.297,0.224-6.946,0.401-10.954,0.535
		c-4.002,0.133-8.234,0.203-12.686,0.203h-74.007c-1.603,0-2.714-0.337-3.339-1.005c-0.625-0.668-0.935-1.758-0.935-3.27V226.022
		L137.681,226.022z M157.986,150.011h67.996c1.512,0,2.581,0.336,3.206,1.004c0.62,0.668,0.935,1.758,0.935,3.271v18.034
		c0,5.787-0.465,12.114-1.4,18.969s-2.431,13.359-4.472,19.499l-10.826-2.533c0.892-2.223,1.715-4.766,2.474-7.614
		c0.753-2.848,1.4-5.835,1.934-8.95c0.535-3.121,0.936-6.257,1.203-9.421c0.267-3.163,0.4-6.166,0.4-9.02v-14.561h-57.175
		c-1.517,0-2.607-0.31-3.275-0.935c-0.668-0.62-1.004-1.688-1.004-3.206v-4.536H157.986z"/>
	<path fill="#CA434B" d="M282.217,223.884c-3.832,0-6.604-0.86-8.352-2.591c-1.731-1.731-2.597-4.553-2.597-8.459V179.8h37.538
		c1.774,0,2.672-0.892,2.672-2.682v-20.29h-35.673c-1.512,0-2.607-0.31-3.276-0.935c-0.667-0.625-1.004-1.688-1.004-3.206v-4.547
		h46.494c1.512,0,2.575,0.336,3.207,1.004c0.63,0.668,0.94,1.758,0.94,3.271v27.519c0,5.435-2.672,8.144-8.016,8.144h-32.194v22.982
		c0,1.603,0.262,2.693,0.802,3.27c0.534,0.577,1.64,0.866,3.339,0.866h10.142c9.704,0,17.661-0.289,23.848-0.866
		s10.842-1.357,13.962-2.34l1.731,9.217c-1.336,0.449-3.228,0.823-5.68,1.138c-2.452,0.315-5.322,0.577-8.608,0.796
		c-3.297,0.225-6.952,0.4-10.959,0.54c-4.008,0.128-8.234,0.198-12.691,0.198h-15.625V223.884z M349.283,255.01V140.793h10.687
		v41.145h2.806c3.911,0,7.369-0.316,10.355-0.936c2.987-0.62,5.231-1.421,6.744-2.405l2.805,9.479
		c-2.047,0.892-4.874,1.539-8.486,1.939c-3.601,0.396-7.192,0.599-10.75,0.599h-3.474v60.12c0,1.512-0.315,2.603-0.94,3.27
		c-0.615,0.668-1.688,1.004-3.206,1.004H349.283z"/>
	<path fill="#CA434B" d="M455.351,150.812c1.513,0,2.581,0.336,3.207,1.004c0.625,0.668,0.935,1.758,0.935,3.27v51.564
		c0,3.917-0.866,6.749-2.602,8.48c-1.737,1.736-4.521,2.607-8.352,2.607h-36.069c-3.831,0-6.61-0.871-8.352-2.607
		c-1.737-1.731-2.603-4.563-2.603-8.48v-55.839H455.351z M444.664,209.055c1.688,0,2.8-0.293,3.339-0.871
		c0.535-0.577,0.796-1.672,0.796-3.27v-45.419h-36.603v45.419c0,1.603,0.267,2.693,0.801,3.27s1.646,0.871,3.339,0.871H444.664z
		 M485.536,255.01V140.793h10.688v109.942c0,1.512-0.315,2.603-0.936,3.27c-0.62,0.668-1.688,1.004-3.201,1.004H485.536z"/>
</g>
<line fill="none" stroke="#CA434B" stroke-width="5" stroke-linecap="round" stroke-linejoin="round" stroke-miterlimit="10" x1="135.73" y1="290.143" x2="253.233" y2="290.143"/>
<line fill="none" stroke="#CA434B" stroke-width="5" stroke-linecap="round" stroke-linejoin="round" stroke-miterlimit="10" x1="392.602" y1="290.143" x2="510.105" y2="290.143"/>
</svg>
