<?xml version="1.0" encoding="utf-8"?>
<!-- Generator: Adobe Illustrator 16.0.0, SVG Export Plug-In . SVG Version: 6.00 Build 0)  -->
<!DOCTYPE svg PUBLIC "-//W3C//DTD SVG 1.1//EN" "http://www.w3.org/Graphics/SVG/1.1/DTD/svg11.dtd">
<svg version="1.1" id="Capa_1" xmlns="http://www.w3.org/2000/svg" xmlns:xlink="http://www.w3.org/1999/xlink" x="0px" y="0px"
	viewBox="165 75 462 462" enable-background="new 165 75 462 462" xml:space="preserve">
<circle fill="#F5B1A2" cx="396" cy="306" r="231"/>
<g>
	<path fill="#FFF8EE" d="M293.344,417.064h-28.736c-9.794,0-17.741-7.946-17.741-17.741V371.51h24.117v11.273
		c0,2.495,2.033,4.436,4.435,4.436h55.532c2.495,0,4.436-2.033,4.436-4.436V371.51h62.093c2.494,0,4.436-2.032,4.436-4.435
		s-2.033-4.436-4.436-4.436h-91.014v-21.99h4.99c6.098,0,11.088-4.99,11.088-11.088v-8.039h1.017
		c10.441,0,19.681-7.114,22.36-17.094l5.175-19.403c1.201-4.528,5.267-7.578,9.979-7.578h68.561c4.897,0,8.778,3.881,8.778,8.779
		v67.82c0,4.897-3.881,8.778-8.778,8.778h-14.507c-2.494,0-4.436,1.94-4.436,4.436c0,2.494,2.033,4.436,4.436,4.436h14.507
		c9.702,0,17.556-7.855,17.556-17.557v-67.821c0-9.702-7.854-17.556-17.556-17.556h-68.561c-8.686,0-16.17,5.822-18.48,14.138
		l-5.174,19.404c-1.663,6.283-7.392,10.626-13.86,10.626h-43.89c-3.789,0-7.207-1.479-9.794-4.343
		c-2.495-2.772-3.696-6.376-3.419-10.164l6.375-66.435c1.294-13.491,12.474-23.747,26.057-23.747h30.122
		c2.495,0,4.436-2.033,4.436-4.436s-2.033-4.435-4.436-4.435h-21.344v-10.812c0-2.493-2.033-4.435-4.435-4.435
		s-4.436,2.032-4.436,4.435v10.812c-18.11,0.091-33.079,13.675-34.834,31.693l-6.283,66.527c-0.555,6.19,1.479,12.382,5.636,17.002
		c4.158,4.526,10.164,7.206,16.355,7.206h2.125v8.039c0,6.098,4.99,11.088,11.088,11.088h4.99v21.99h-55.44
		c-2.495,0-4.435,2.032-4.435,4.436v32.34c0,14.599,11.919,26.52,26.519,26.52h28.736c2.495,0,4.436-2.034,4.436-4.436
		C297.779,419.005,295.746,417.064,293.344,417.064z M290.664,329.655v-8.039h23.1v8.039c0,1.201-1.017,2.217-2.218,2.217h-18.757
		C291.588,331.779,290.664,330.763,290.664,329.655z M326.607,378.349h-46.754v-6.838h46.754V378.349z"/>
	<path fill="#FFF8EE" d="M502.444,199.186h-4.62v-31.23c0-2.495-2.033-4.436-4.436-4.436h-8.224v-5.822
		c0-2.493-2.032-4.435-4.435-4.435c-2.495,0-4.436,2.033-4.436,4.435v5.822h-8.224c-2.495,0-4.436,2.033-4.436,4.436v31.23H346.658
		c-2.495,0-4.435,2.033-4.435,4.435c0,2.402,2.033,4.436,4.435,4.436h155.694c14.414,0,26.241,11.735,26.241,26.242v165.211
		c0,9.795-7.946,17.741-17.74,17.741H310.992c-2.495,0-4.436,2.033-4.436,4.436c0,2.493,2.033,4.435,4.436,4.435h199.953
		c14.6,0,26.52-11.827,26.52-26.52V234.205C537.465,214.894,521.757,199.186,502.444,199.186z M472.6,172.297h16.354v26.889H472.6
		V172.297z"/>
	<path fill="#FFF8EE" d="M489.14,267.562c-12.014,0-21.715,9.702-21.715,21.713c0,12.013,9.702,21.714,21.715,21.714
		c12.012,0,21.713-9.702,21.713-21.714C510.761,277.264,501.059,267.562,489.14,267.562z M489.14,302.304
		c-7.208,0-13.029-5.821-13.029-13.028c0-7.206,5.821-13.028,13.029-13.028c7.206,0,13.027,5.822,13.027,13.028
		C502.075,296.483,496.254,302.304,489.14,302.304z"/>
	<path fill="#FFF8EE" d="M413.002,241.781c2.494,0,4.436-2.033,4.436-4.435c0-2.402-2.034-4.436-4.436-4.436h-13.307
		c-2.494,0-4.436,2.033-4.436,4.436c0,2.401,2.033,4.435,4.436,4.435H413.002z"/>
	<path fill="#FFF8EE" d="M502.722,232.911h-69.115c-2.494,0-4.435,2.033-4.435,4.436c0,2.401,2.032,4.436,4.435,4.436h69.115
		c2.494,0,4.436-2.034,4.436-4.436C507.157,234.945,505.217,232.911,502.722,232.911z"/>
</g>
</svg>
