<?xml version="1.0" encoding="utf-8"?>
<!-- Generator: Adobe Illustrator 23.0.2, SVG Export Plug-In . SVG Version: 6.00 Build 0)  -->
<svg version="1.1" id="레이어_1" xmlns="http://www.w3.org/2000/svg" xmlns:xlink="http://www.w3.org/1999/xlink" x="0px"
	 y="0px" viewBox="0 0 500 500" style="enable-background:new 0 0 500 500;" xml:space="preserve">
<style type="text/css">
	.st0{fill:#CA434B;}
	.st1{fill:none;stroke:#FFF8EE;stroke-width:10;stroke-linecap:round;stroke-linejoin:round;stroke-miterlimit:10;}
	.st2{fill:none;stroke:#FFF8EE;stroke-width:10;stroke-linecap:round;stroke-miterlimit:10;}
	.st3{fill:#FFF8EE;}
</style>
<circle class="st0" cx="250" cy="249.1" r="250"/>
<rect x="102.3" y="130.7" class="st1" width="295.4" height="238.7"/>
<rect x="136.3" y="164.7" class="st1" width="227.4" height="143.8"/>
<line class="st1" x1="135.3" y1="338" x2="170.3" y2="338"/>
<line class="st2" x1="190" y1="338" x2="210" y2="338"/>
<g>
	<path class="st3" d="M188.4,207h16.2c18.1,0,29.3,9.4,29.3,29.4c0,19.9-11.2,29.8-28.6,29.8h-16.9V207z M203.9,256.7
		c11,0,17.9-5.9,17.9-20.3c0-14.5-6.9-19.9-17.9-19.9h-3.7v40.2H203.9z"/>
	<path class="st3" d="M245.5,207h11.8v59.2h-11.8V207z"/>
	<path class="st3" d="M281.9,244.5L264.2,207h12.6l5.9,14.4c1.7,4.4,3.3,8.6,5.1,13.1h0.3c1.8-4.6,3.6-8.7,5.3-13.1l5.9-14.4h12.3
		l-17.8,37.5v21.7h-11.8V244.5z"/>
</g>
</svg>
