<?xml version="1.0" encoding="utf-8"?>
<!-- Generator: Adobe Illustrator 16.0.0, SVG Export Plug-In . SVG Version: 6.00 Build 0)  -->
<!DOCTYPE svg PUBLIC "-//W3C//DTD SVG 1.1//EN" "http://www.w3.org/Graphics/SVG/1.1/DTD/svg11.dtd">
<svg version="1.1" xmlns="http://www.w3.org/2000/svg" xmlns:xlink="http://www.w3.org/1999/xlink" x="0px" y="0px" width="967px"
	 height="748.067px" viewBox="0 0 967 748.067" enable-background="new 0 0 967 748.067" xml:space="preserve">
<g id="Layer_3" display="none">
	<rect display="inline" fill="#381000" width="967" height="748"/>
</g>
<g id="Layer_1">
	<g>
		<circle fill="#CA434B" cx="60.5" cy="60.5" r="60.5"/>
		<g>
			<path fill="#FFF8EE" d="M18.257,68.701h5.351v-15.73h-4.517v-3.065c2.5-0.484,4.194-1.103,5.781-2.097h3.657v20.865h4.679v4.007
				H18.257V68.701z"/>
			<path fill="#FFF8EE" d="M36.166,69.776l2.286-3.173c1.425,1.371,3.173,2.527,5.485,2.527c2.581,0,4.41-1.64,4.41-4.57
				c0-2.904-1.694-4.518-4.195-4.518c-1.479,0-2.286,0.376-3.737,1.317l-2.259-1.479l0.672-12.073h13.31v4.141h-9.035l-0.484,5.271
				c0.968-0.484,1.855-0.699,2.984-0.699c4.168,0,7.664,2.5,7.664,7.905c0,5.539-4.087,8.739-8.712,8.739
				C40.629,73.165,38.021,71.632,36.166,69.776z"/>
			<path fill="#FFF8EE" d="M56.574,63.323c0-6.292,4.518-9.922,9.626-9.922c2.313,0,4.114,0.914,5.485,2.097l-2.366,3.2
				c-0.941-0.807-1.828-1.237-2.904-1.237c-2.85,0-4.813,2.313-4.813,5.888c0,3.523,1.963,5.809,4.679,5.809
				c1.344,0,2.635-0.646,3.657-1.506l1.963,3.254c-1.775,1.586-4.06,2.285-6.158,2.285C60.527,73.165,56.574,69.534,56.574,63.323z"
				/>
			<path fill="#FFF8EE" d="M75.45,53.885h4.033l0.35,2.527h0.135c1.586-1.64,3.334-2.984,5.781-2.984
				c2.689,0,4.275,1.21,5.189,3.307c1.721-1.828,3.523-3.307,5.997-3.307c4.006,0,5.862,2.823,5.862,7.555v11.724h-4.948V61.575
				c0-2.904-0.833-3.925-2.635-3.925c-1.076,0-2.286,0.699-3.63,2.124v12.933h-4.947V61.575c0-2.904-0.833-3.925-2.635-3.925
				c-1.076,0-2.286,0.699-3.63,2.124v12.933H75.45V53.885z"/>
		</g>
	</g>
	<g>
		<g>
			<circle fill="#CA434B" cx="181.5" cy="60.5" r="60.5"/>
		</g>
		<g>
			<path fill="#FFF8EE" d="M138.72,70.072c6.749-6.05,10.756-10.729,10.756-14.547c0-2.527-1.372-4.033-3.738-4.033
				c-1.828,0-3.334,1.183-4.57,2.554l-2.689-2.688c2.286-2.42,4.518-3.765,7.905-3.765c4.706,0,7.825,3.039,7.825,7.664
				c0,4.517-3.738,9.33-8.282,13.767c1.237-0.134,2.904-0.269,4.033-0.269h5.405v4.168h-16.671v-2.851H138.72z"/>
			<path fill="#FFF8EE" d="M158.537,60.393c0-8.604,3.361-12.799,8.443-12.799c5.027,0,8.389,4.249,8.389,12.799
				c0,8.577-3.361,13.014-8.389,13.014C161.898,73.406,158.537,68.97,158.537,60.393z M170.718,60.393
				c0-6.964-1.613-8.981-3.737-8.981c-2.151,0-3.765,2.017-3.765,8.981c0,6.991,1.613,9.142,3.765,9.142
				C169.104,69.535,170.718,67.383,170.718,60.393z"/>
			<path fill="#FFF8EE" d="M178.327,63.565c0-6.292,4.518-9.922,9.626-9.922c2.313,0,4.114,0.914,5.485,2.097l-2.366,3.2
				c-0.941-0.807-1.828-1.237-2.904-1.237c-2.85,0-4.813,2.313-4.813,5.889c0,3.522,1.963,5.808,4.679,5.808
				c1.344,0,2.635-0.645,3.656-1.505l1.964,3.253c-1.775,1.586-4.061,2.286-6.158,2.286
				C182.307,73.406,178.327,69.776,178.327,63.565z"/>
			<path fill="#FFF8EE" d="M197.23,54.127h4.033l0.35,2.527h0.134c1.587-1.64,3.335-2.985,5.781-2.985
				c2.688,0,4.275,1.21,5.189,3.308c1.721-1.829,3.522-3.308,5.996-3.308c4.007,0,5.862,2.823,5.862,7.556v11.723h-4.948V61.817
				c0-2.904-0.833-3.926-2.635-3.926c-1.075,0-2.285,0.699-3.63,2.125v12.933h-4.975V61.817c0-2.904-0.833-3.926-2.635-3.926
				c-1.075,0-2.286,0.699-3.63,2.125v12.933h-4.921V54.127H197.23z"/>
		</g>
	</g>
	<g>
		<g>
			<circle fill="#CA434B" cx="302.5" cy="60.5" r="60.5"/>
		</g>
		<g>
			<path fill="#FFF8EE" d="M329.365,94.31c-16.262-0.001-31.555-6.325-43.061-17.807c-11.503-11.479-17.857-26.748-17.894-42.997
				c0-1.944,1.325-3.62,3.223-4.078l13.417-3.1c0.308-0.072,0.626-0.108,0.944-0.108c1.665,0,3.175,0.988,3.846,2.518l6.198,14.406
				c0.74,1.705,0.256,3.719-1.179,4.893l-7.136,5.873c4.525,9.21,12.017,16.687,21.229,21.185l5.853-7.16
				c0.798-0.976,1.98-1.535,3.243-1.535c0.56,0,1.105,0.11,1.62,0.328l14.426,6.148c1.862,0.798,2.878,2.804,2.419,4.772
				L333.44,91.05c-0.457,1.891-2.104,3.227-4.011,3.259L329.365,94.31z M285.995,28.38c-0.153,0-0.306,0.018-0.456,0.053
				l-13.409,3.098c-0.914,0.22-1.559,1.033-1.559,1.972c0.071,32.334,26.446,58.644,58.793,58.646h0.044
				c0.905-0.016,1.705-0.671,1.927-1.593l3.07-13.395c0.218-0.935-0.282-1.921-1.163-2.298l-14.421-6.146
				c-0.244-0.104-0.506-0.156-0.775-0.156c-0.612,0-1.185,0.27-1.57,0.742l-6.389,7.816c-0.313,0.382-0.845,0.504-1.293,0.295
				c-10.269-4.784-18.576-13.074-23.391-23.341c-0.209-0.447-0.09-0.979,0.292-1.293l7.792-6.413
				c0.693-0.567,0.925-1.539,0.566-2.366l-6.196-14.402C287.535,28.861,286.803,28.38,285.995,28.38z"/>
		</g>
	</g>
	<g>
		<g>
			<g>
				<circle fill="#CA434B" cx="423.5" cy="60.5" r="60.5"/>
			</g>
		</g>
		<g>
			<path fill="#FFF8EE" d="M393.686,46.173h7.865c8.76,0,14.181,4.525,14.181,14.206c0,9.632-5.421,14.447-13.867,14.447h-8.18
				V46.173z M401.188,70.229c5.348,0,8.664-2.856,8.664-9.825c0-7.018-3.339-9.632-8.664-9.632h-1.791v19.481h1.791V70.229z"/>
			<path fill="#FFF8EE" d="M421.322,46.173h5.736v28.653h-5.736V46.173z"/>
			<path fill="#FFF8EE" d="M438.939,64.323l-8.591-18.15h6.074l2.855,6.97c0.823,2.13,1.597,4.138,2.469,6.34h0.145
				c0.895-2.202,1.742-4.21,2.565-6.34l2.856-6.97h5.953l-8.64,18.15v10.503h-5.735V64.323H438.939z"/>
		</g>
	</g>
	<g>
		<g>
			<path fill="#CA434B" d="M544.5,0C577.92,0,605,27.08,605,60.5c0,33.42-27.08,60.5-60.5,60.5S484,93.92,484,60.5
				C484,27.08,511.08,0,544.5,0"/>
		</g>
		<g>
			<path fill="#FFF8EE" d="M542.976,22.313c0.75,0,1.38,0.629,1.38,1.379v44.842l13.43-13.407c0.267-0.266,0.63-0.411,0.969-0.411
				c0.363,0,0.701,0.145,0.968,0.411c0.532,0.533,0.532,1.404,0,1.96l-15.536,15.536c-0.146,0.266-0.387,0.484-0.678,0.605
				c-0.218,0.121-0.436,0.169-0.678,0.169c-0.023,0-0.049,0-0.072,0c-0.024,0-0.049,0-0.072,0c-0.363,0-0.703-0.121-0.969-0.411
				l-15.924-15.924c-0.532-0.532-0.532-1.403,0-1.96c0.267-0.266,0.629-0.412,0.969-0.412c0.363,0,0.701,0.146,0.968,0.412
				L541.62,68.97V23.692C541.596,22.941,542.201,22.313,542.976,22.313"/>
			<path fill="#FFF8EE" d="M542.83,74.479h-0.145c-0.689,0-1.292-0.257-1.747-0.742l-15.909-15.909
				c-0.94-0.94-0.947-2.498-0.017-3.471l0.017-0.018c0.463-0.462,1.094-0.727,1.732-0.727c0.646,0,1.262,0.258,1.731,0.728
				l12.047,12.025V23.707c-0.017-0.65,0.225-1.265,0.679-1.733c0.463-0.478,1.086-0.741,1.757-0.741c1.356,0,2.46,1.104,2.46,2.46
				v42.237l11.587-11.566c0.462-0.461,1.093-0.727,1.731-0.727c0.647,0,1.263,0.258,1.732,0.728c0.939,0.94,0.947,2.497,0.016,3.471
				l-0.016,0.017l-15.443,15.443c-0.256,0.395-0.627,0.712-1.063,0.907C543.625,74.388,543.248,74.479,542.83,74.479z
				 M526.565,55.859c-0.117,0.131-0.122,0.327-0.009,0.44l15.957,15.958c0.025,0.028,0.056,0.061,0.172,0.061h0.145
				c0.086,0,0.119-0.014,0.152-0.033l0.11-0.053c0.061-0.025,0.116-0.073,0.144-0.125l0.075-0.137l15.635-15.635
				c0.12-0.132,0.126-0.329,0.012-0.444c-0.085-0.085-0.157-0.095-0.204-0.095c-0.044,0-0.135,0.025-0.203,0.095l-15.276,15.248
				V23.692c0-0.154-0.146-0.299-0.299-0.299c-0.103,0-0.168,0.045-0.205,0.083c-0.034,0.035-0.073,0.095-0.07,0.181l0.001,0.035
				v47.883l-15.734-15.707c-0.086-0.085-0.158-0.095-0.205-0.095C526.719,55.772,526.635,55.796,526.565,55.859z"/>
		</g>
		<g>
			<path fill="#FFF8EE" d="M568.7,72.261c0.75,0,1.379,0.629,1.379,1.379v15.633c0,0.411-0.169,0.75-0.435,1.016
				c-0.242,0.266-0.605,0.436-1.018,0.436h-48.254c-0.388,0-0.75-0.169-1.018-0.436c-0.266-0.242-0.435-0.605-0.435-1.016V73.641
				c0-0.75,0.629-1.379,1.379-1.379c0.751,0,1.38,0.629,1.38,1.379v14.326h45.641V73.641C567.32,72.866,567.949,72.261,568.7,72.261
				"/>
			<path fill="#FFF8EE" d="M568.627,91.806h-48.254c-0.646,0-1.287-0.268-1.764-0.734c-0.488-0.455-0.77-1.109-0.77-1.798V73.641
				c0-1.356,1.104-2.46,2.46-2.46s2.46,1.104,2.46,2.46v13.246h43.48V73.641c0-1.356,1.104-2.46,2.46-2.46s2.46,1.104,2.46,2.46
				v15.633c0,0.665-0.254,1.273-0.734,1.762C569.971,91.526,569.316,91.806,568.627,91.806z M520.3,73.341
				c-0.153,0-0.299,0.146-0.299,0.299v15.633c0,0.089,0.03,0.17,0.081,0.216l0.038,0.036c0.075,0.075,0.169,0.12,0.253,0.12h48.254
				c0.129,0,0.195-0.058,0.217-0.082l0.036-0.038c0.104-0.104,0.119-0.183,0.119-0.252V73.641c0-0.154-0.146-0.299-0.299-0.299
				c-0.144,0-0.3,0.114-0.3,0.299v15.407H520.6V73.641C520.6,73.487,520.453,73.341,520.3,73.341z"/>
		</g>
	</g>
	<g>
		<g>
			<g>
				<circle fill="#CA434B" cx="664.5" cy="60.5" r="60.5"/>
			</g>
		</g>
		<g>
			<path fill="#FFF8EE" d="M630.281,45.762h17.569v4.767h-11.858v6.631h10.067v4.792h-10.067v7.671h12.294v4.792h-18.005V45.762z"/>
			<path fill="#FFF8EE" d="M659.781,50.529h-8.059v-4.767h21.925v4.767h-8.131v23.886h-5.735V50.529L659.781,50.529z"/>
			<path fill="#FFF8EE" d="M675.656,60.209c0-9.438,6.074-14.979,13.311-14.979c3.629,0,6.533,1.742,8.396,3.678l-3.025,3.63
				c-1.428-1.404-3.097-2.396-5.275-2.396c-4.332,0-7.598,3.727-7.598,9.874c0,6.243,2.951,9.995,7.477,9.995
				c2.445,0,4.381-1.162,5.93-2.832l3.025,3.557c-2.372,2.759-5.422,4.211-9.148,4.211
				C681.537,74.947,675.656,69.769,675.656,60.209z"/>
		</g>
	</g>
	<g>
		<g>
			<g>
				<circle fill="#CA434B" cx="785.5" cy="60.5" r="60.5"/>
			</g>
		</g>
	</g>
	<g>
		<g>
			<rect x="756.146" y="25.265" fill="#CA434B" width="58.709" height="70.446"/>
			<path fill="#FFF8EE" d="M814.854,96.792h-58.709c-0.597,0-1.08-0.484-1.08-1.081V25.265c0-0.597,0.483-1.08,1.08-1.08h58.709
				c0.597,0,1.08,0.483,1.08,1.08v70.446C815.935,96.308,815.451,96.792,814.854,96.792z M757.227,94.631h56.548V26.345h-56.548
				V94.631z"/>
		</g>
		<g>
			<g>
				<rect x="765.414" y="35.308" fill="#CA434B" width="20.086" height="20.086"/>
				<path fill="#FFF8EE" d="M785.5,56.474h-20.086c-0.597,0-1.08-0.484-1.08-1.08V35.308c0-0.596,0.483-1.08,1.08-1.08H785.5
					c0.597,0,1.08,0.484,1.08,1.08v20.086C786.58,55.99,786.097,56.474,785.5,56.474z M766.494,54.313h17.926V36.388h-17.926V54.313
					z"/>
			</g>
			<g>
				<path fill="#FFF8EE" d="M805.586,39.002H790.51c-0.598,0-1.081-0.484-1.081-1.081s0.483-1.081,1.081-1.081h15.076
					c0.597,0,1.08,0.484,1.08,1.081S806.183,39.002,805.586,39.002z"/>
			</g>
			<g>
				<path fill="#FFF8EE" d="M805.586,44.011H790.51c-0.598,0-1.081-0.484-1.081-1.081s0.483-1.08,1.081-1.08h15.076
					c0.597,0,1.08,0.483,1.08,1.08S806.183,44.011,805.586,44.011z"/>
			</g>
			<g>
				<path fill="#FFF8EE" d="M805.586,49.021H790.51c-0.598,0-1.081-0.484-1.081-1.08c0-0.597,0.483-1.081,1.081-1.081h15.076
					c0.597,0,1.08,0.484,1.08,1.081C806.666,48.537,806.183,49.021,805.586,49.021z"/>
			</g>
			<g>
				<path fill="#FFF8EE" d="M805.586,54.054H790.51c-0.598,0-1.081-0.484-1.081-1.081s0.483-1.08,1.081-1.08h15.076
					c0.597,0,1.08,0.483,1.08,1.08S806.183,54.054,805.586,54.054z"/>
			</g>
			<g>
				<rect x="797.938" y="60.597" fill="#CA434B" width="5.01" height="5.009"/>
				<path fill="#FFF8EE" d="M802.948,66.687h-5.01c-0.597,0-1.08-0.484-1.08-1.081v-5.009c0-0.597,0.483-1.081,1.08-1.081h5.01
					c0.597,0,1.08,0.484,1.08,1.081v5.009C804.028,66.203,803.545,66.687,802.948,66.687z M799.02,64.526h2.849v-2.849h-2.849
					V64.526z"/>
			</g>
			<g>
				<rect x="798.156" y="70.64" fill="#CA434B" width="5.01" height="5.009"/>
				<path fill="#FFF8EE" d="M803.166,76.729h-5.01c-0.597,0-1.08-0.484-1.08-1.081V70.64c0-0.597,0.483-1.08,1.08-1.08h5.01
					c0.597,0,1.08,0.483,1.08,1.08v5.009C804.246,76.246,803.763,76.729,803.166,76.729z M799.237,74.569h2.849V71.72h-2.849V74.569
					z"/>
			</g>
			<g>
				<rect x="797.938" y="80.683" fill="#CA434B" width="5.01" height="5.01"/>
				<path fill="#FFF8EE" d="M802.948,86.772h-5.01c-0.597,0-1.08-0.484-1.08-1.08v-5.01c0-0.597,0.483-1.081,1.08-1.081h5.01
					c0.597,0,1.08,0.484,1.08,1.081v5.01C804.028,86.289,803.545,86.772,802.948,86.772z M799.02,84.612h2.849v-2.849h-2.849V84.612
					z"/>
			</g>
			<g>
				<path fill="#FFF8EE" d="M792.93,64.097h-27.516c-0.597,0-1.08-0.484-1.08-1.081s0.483-1.08,1.08-1.08h27.516
					c0.597,0,1.08,0.483,1.08,1.08S793.526,64.097,792.93,64.097z"/>
			</g>
			<g>
				<path fill="#FFF8EE" d="M793.123,74.14h-27.491c-0.597,0-1.08-0.484-1.08-1.081c0-0.596,0.483-1.08,1.08-1.08h27.491
					c0.597,0,1.08,0.484,1.08,1.08C794.203,73.656,793.72,74.14,793.123,74.14z"/>
			</g>
			<g>
				<path fill="#FFF8EE" d="M792.93,84.159h-27.516c-0.597,0-1.08-0.484-1.08-1.08c0-0.597,0.483-1.081,1.08-1.081h27.516
					c0.597,0,1.08,0.484,1.08,1.081C794.01,83.675,793.526,84.159,792.93,84.159z"/>
			</g>
		</g>
	</g>
	<g>
		<g>
			<g id="레이어_1">
				<circle fill="#CA434B" cx="906.5" cy="60.5" r="60.5"/>
			</g>
			<path fill="#FFF8EE" d="M890.407,62.474"/>
		</g>
		<g>
			<path fill="#FFF8EE" d="M949.479,74.743c0,0,0.145-6.486-7.816-8.591c1.79-14.908-1.573-22.772-1.573-22.772
				c-5.445-11.979-15.996-17.134-23.765-19.336c-5.421-1.549-13.407-1.573-17.956-0.459c-7.841,1.936-19.603,6.921-25.459,19.795
				c0,0-3.363,7.865-1.573,22.772c-7.961,2.105-7.816,8.591-7.816,8.591s-0.023,0.459,0,0.605c-0.023,3.824,2.59,6.582,4.284,7.816
				c1.524,1.234,3.678,2.154,5.348,2.444c1.041,0.145,1.767,0.145,2.274,0.024c0.388,1.597,0.678,2.783,0.799,3.073
				c0,0,3.146,7.938,13.722,11.906c0,0,3.969,1.984,10.986,3.17c4.066,0.508,6.51,0.677,10.431,0.121
				c7.453-1.161,11.664-3.267,11.664-3.267c10.6-3.969,13.722-11.906,13.722-11.906c0.121-0.291,0.436-1.477,0.799-3.074
				c0.483,0.121,1.21,0.121,2.274-0.024c1.694-0.315,3.823-1.234,5.372-2.444c1.694-1.234,4.284-3.993,4.284-7.817
				C949.527,75.203,949.479,74.743,949.479,74.743z M915.357,26.924c7.211,2.033,17.109,6.776,22.191,17.98
				c0,0,3.194,7.478,1.379,21.659c-0.629,0.024-1.572,0.048-2.178,0.073c-0.799,0.024-1.597,0.024-2.396,0.024
				c-18.876,0-36.881-5.469-53.216-15.367c-2.832-1.718-5.01-3.267-6.341-4.55c0.339-1.234,0.605-1.863,0.605-1.863
				c5.493-12.076,16.577-16.649,23.837-18.392C903.354,25.521,910.421,25.544,915.357,26.924z M875.137,72.226l-1.064-5.614
				c-0.92-7.211-0.557-12.681,0.024-16.335c1.597,1.331,4.21,3.001,6.945,4.646c3.121,1.888,6.292,3.605,9.51,5.154
				c-2.879,5.808-8.106,10.212-14.472,11.979c-0.145,0.048-0.29,0.072-0.411,0.097l0.411-0.097
				C875.718,72.154,875.403,72.202,875.137,72.226z M870.079,81.833c-2.299-1.331-3.34-2.904-3.679-4.017
				c-0.604-1.839-0.362-3.412-0.145-4.138c0.459-1.694,1.379-3.073,3.024-4.017c0.678-0.339,1.5-0.629,2.517-0.847L872.596,73
				c0,0,1.21,5.566,2.227,10.091C874.048,83.213,872.838,83.189,870.079,81.833z M934.499,86.843c0,0-2.903,7.356-12.704,11.035
				c0,0-3.315,1.669-9.245,2.759c-4.912,0.919-6.606,0.919-11.52,0.097c-6.268-1.089-9.776-2.855-9.776-2.855
				c-9.801-3.679-12.705-11.035-12.705-11.035c-0.314-0.75-1.888-7.769-2.759-11.786c7.89-1.258,14.447-6.558,17.473-13.697
				c12.923,5.808,26.717,8.954,40.995,8.954c0.798,0,1.597,0,2.396-0.024c0.46,0,1.089-0.024,1.646-0.048l-0.387,2.082
				C937.863,72.299,934.959,85.778,934.499,86.843z M946.6,77.816c-0.339,1.113-1.38,2.687-3.679,4.017
				c-2.759,1.355-3.944,1.379-4.719,1.258c1.04-4.525,2.227-10.091,2.227-10.091l0.798-4.187c1.017,0.218,1.863,0.484,2.518,0.847
				c1.646,0.944,2.541,2.323,3.024,4.017C946.938,74.404,947.204,75.977,946.6,77.816z"/>
			<path fill="#FFF8EE" d="M895.731,73.219c-0.774,0-1.404,0.605-1.452,1.379l0,0v3.993l0,0c0,0.024,0,0.048,0,0.073
				c0,0.798,0.653,1.452,1.452,1.452c0.798,0,1.451-0.654,1.451-1.452c0-0.024,0-0.048,0-0.073l0,0v-3.993l0,0
				C897.158,73.824,896.529,73.219,895.731,73.219z"/>
			<path fill="#FFF8EE" d="M917.172,73.219c-0.774,0-1.403,0.605-1.451,1.379l0,0v3.993l0,0c0,0.024,0,0.048,0,0.073
				c0,0.798,0.653,1.452,1.451,1.452c0.799,0,1.452-0.654,1.452-1.452c0-0.024,0-0.048,0-0.073l0,0v-3.993l0,0
				C918.6,73.824,917.971,73.219,917.172,73.219z"/>
			<path fill="#FFF8EE" d="M911.751,84.472c-0.314,0-0.604,0.121-0.871,0.29c-0.436,0.339-1.21,0.629-2.444,0.629
				c-0.483,0-1.984,0-1.984,0s-1.5,0-1.984,0c-1.233,0-1.984-0.314-2.42-0.629c-0.242-0.169-0.532-0.29-0.871-0.29
				c-0.799,0-1.452,0.653-1.452,1.452c0,0.533,0.146,0.847,0.727,1.259l0,0c1.113,0.798,2.348,0.968,3.872,0.968
				c0.532,0.024,2.153,0,2.153,0s1.598,0.024,2.154,0c1.524,0,2.759-0.145,3.872-0.968l0,0c0.58-0.412,0.726-0.726,0.726-1.259
				C913.203,85.125,912.55,84.472,911.751,84.472z"/>
		</g>
	</g>
	<g>
		<circle fill="#CA434B" cx="60.5" cy="181.5" r="60.5"/>
		<g>
			<path fill="#FFF8EE" d="M33.614,210.588h-7.526c-2.565,0-4.646-2.082-4.646-4.646v-7.284h6.316v2.952
				c0,0.654,0.532,1.162,1.162,1.162h14.544c0.653,0,1.162-0.532,1.162-1.162v-2.952h16.262c0.653,0,1.162-0.532,1.162-1.162
				s-0.532-1.162-1.162-1.162H37.05v-5.759h1.307c1.597,0,2.904-1.307,2.904-2.904v-2.105h0.267c2.734,0,5.154-1.863,5.856-4.477
				l1.355-5.082c0.315-1.186,1.379-1.985,2.614-1.985h17.956c1.283,0,2.299,1.017,2.299,2.299v17.763
				c0,1.283-1.017,2.299-2.299,2.299h-3.799c-0.653,0-1.162,0.508-1.162,1.162s0.532,1.162,1.162,1.162h3.799
				c2.542,0,4.598-2.057,4.598-4.598v-17.763c0-2.541-2.057-4.598-4.598-4.598H51.353c-2.275,0-4.235,1.525-4.84,3.703l-1.355,5.082
				c-0.436,1.646-1.936,2.783-3.63,2.783H30.032c-0.992,0-1.888-0.387-2.565-1.137c-0.653-0.726-0.968-1.67-0.895-2.662l1.669-17.4
				c0.339-3.533,3.267-6.219,6.825-6.219h7.889c0.653,0,1.162-0.532,1.162-1.162s-0.533-1.162-1.162-1.162h-5.59v-2.832
				c0-0.653-0.532-1.162-1.162-1.162c-0.629,0-1.162,0.532-1.162,1.162v2.832c-4.743,0.024-8.664,3.582-9.123,8.301l-1.646,17.424
				c-0.145,1.621,0.387,3.243,1.477,4.453c1.089,1.186,2.662,1.888,4.283,1.888h0.557v2.105c0,1.597,1.307,2.904,2.904,2.904H34.8
				v5.76H20.28c-0.654,0-1.162,0.532-1.162,1.162v8.47c0,3.824,3.122,6.946,6.945,6.946h7.526c0.653,0,1.161-0.533,1.161-1.162
				C34.775,211.097,34.243,210.588,33.614,210.588z M32.912,187.695v-2.105h6.05v2.105c0,0.314-0.266,0.581-0.581,0.581h-4.913
				C33.154,188.251,32.912,187.985,32.912,187.695z M42.326,200.448H30.081v-1.791h12.245V200.448z"/>
			<path fill="#FFF8EE" d="M88.378,153.524h-1.21v-8.179c0-0.653-0.533-1.162-1.162-1.162h-2.154v-1.525
				c0-0.653-0.532-1.162-1.162-1.162c-0.653,0-1.162,0.533-1.162,1.162v1.525h-2.154c-0.653,0-1.162,0.532-1.162,1.162v8.179H47.577
				c-0.653,0-1.162,0.533-1.162,1.162c0,0.629,0.532,1.162,1.162,1.162h40.777c3.775,0,6.873,3.074,6.873,6.873v43.27
				c0,2.565-2.081,4.646-4.646,4.646H38.236c-0.653,0-1.162,0.532-1.162,1.162c0,0.653,0.533,1.162,1.162,1.162h52.369
				c3.824,0,6.945-3.098,6.945-6.945v-43.318C97.55,157.639,93.436,153.524,88.378,153.524z M80.562,146.482h4.284v7.042h-4.284
				V146.482z"/>
			<path fill="#FFF8EE" d="M84.894,171.433c-3.146,0-5.687,2.541-5.687,5.687s2.541,5.687,5.687,5.687s5.687-2.541,5.687-5.687
				C90.556,173.974,88.015,171.433,84.894,171.433z M84.894,180.532c-1.888,0-3.412-1.524-3.412-3.412
				c0-1.887,1.524-3.412,3.412-3.412s3.412,1.525,3.412,3.412C88.282,179.007,86.757,180.532,84.894,180.532z"/>
			<path fill="#FFF8EE" d="M64.953,164.681c0.653,0,1.161-0.533,1.161-1.162c0-0.629-0.532-1.162-1.161-1.162h-3.485
				c-0.654,0-1.162,0.532-1.162,1.162c0,0.629,0.533,1.162,1.162,1.162H64.953z"/>
			<path fill="#FFF8EE" d="M88.451,162.358H70.35c-0.654,0-1.162,0.532-1.162,1.162c0,0.629,0.532,1.162,1.162,1.162h18.102
				c0.653,0,1.162-0.533,1.162-1.162C89.613,162.89,89.104,162.358,88.451,162.358z"/>
		</g>
	</g>
	<g>
		<g>
			<circle fill="#CA434B" cx="181.5" cy="181.5" r="60.5"/>
		</g>
		<g>
			<g>
				<g>
					<path fill="#FFF8EE" d="M173.611,160.994c-0.197,0-0.395-0.054-0.568-0.162c-0.318-0.197-0.513-0.544-0.513-0.919v-15.682
						c0-0.375,0.194-0.722,0.513-0.919c0.318-0.197,0.716-0.215,1.051-0.047l15.682,7.841c0.366,0.183,0.597,0.557,0.597,0.966
						s-0.231,0.783-0.597,0.966l-15.682,7.841C173.941,160.956,173.776,160.994,173.611,160.994z M174.691,145.98v12.186
						l12.185-6.093L174.691,145.98z"/>
				</g>
				<g>
					<path fill="#FFF8EE" d="M151.855,165.319c-0.597,0-1.081-0.484-1.081-1.081v-12.48c0-0.597,0.484-1.081,1.081-1.081h21.756
						c0.597,0,1.081,0.484,1.081,1.081c0,0.596-0.484,1.08-1.081,1.08h-20.675v11.4
						C152.936,164.835,152.452,165.319,151.855,165.319z"/>
				</g>
			</g>
			<g>
				<g>
					<path fill="#FFF8EE" d="M210.661,190.397c-0.409,0-0.783-0.231-0.966-0.597l-7.841-15.682
						c-0.167-0.335-0.149-0.733,0.047-1.051s0.544-0.512,0.919-0.512h15.682c0.374,0,0.722,0.194,0.919,0.512
						c0.197,0.318,0.215,0.716,0.047,1.051l-7.841,15.682C211.444,190.166,211.07,190.397,210.661,190.397z M204.568,174.715
						l6.093,12.186l6.093-12.186H204.568z"/>
				</g>
				<g>
					<path fill="#FFF8EE" d="M210.661,174.715c-0.597,0-1.081-0.484-1.081-1.081v-20.675h-11.832c-0.597,0-1.08-0.483-1.08-1.08
						s0.483-1.081,1.08-1.081h12.913c0.597,0,1.08,0.484,1.08,1.081v21.755C211.741,174.231,211.258,174.715,210.661,174.715z"/>
				</g>
			</g>
			<g>
				<g>
					<path fill="#FFF8EE" d="M188.905,219.606c-0.166,0-0.331-0.038-0.483-0.114l-15.682-7.841
						c-0.366-0.183-0.597-0.557-0.597-0.966s0.231-0.783,0.597-0.966l15.682-7.841c0.335-0.167,0.732-0.149,1.051,0.047
						c0.318,0.197,0.512,0.544,0.512,0.919v15.682c0,0.375-0.194,0.722-0.512,0.919C189.3,219.552,189.103,219.606,188.905,219.606z
						 M175.64,210.685l12.185,6.093v-12.186L175.64,210.685z"/>
				</g>
				<g>
					<path fill="#FFF8EE" d="M210.685,211.887h-21.756c-0.597,0-1.08-0.484-1.08-1.081s0.483-1.081,1.08-1.081h20.676v-11.832
						c0-0.597,0.483-1.08,1.08-1.08c0.597,0,1.081,0.483,1.081,1.08v12.912C211.766,211.403,211.282,211.887,210.685,211.887z"/>
				</g>
			</g>
			<g>
				<g>
					<path fill="#FFF8EE" d="M159.7,189.623c-0.002,0-0.003,0-0.004,0h-15.682c-0.375,0-0.722-0.194-0.919-0.512
						c-0.197-0.319-0.215-0.716-0.047-1.051l7.841-15.682c0.183-0.366,0.557-0.597,0.966-0.597s0.783,0.231,0.966,0.597l7.8,15.6
						c0.101,0.164,0.159,0.357,0.159,0.564C160.78,189.139,160.297,189.623,159.7,189.623z M145.762,187.462h12.186l-6.093-12.186
						L145.762,187.462z"/>
				</g>
				<g>
					<path fill="#FFF8EE" d="M164.767,211.887h-12.912c-0.597,0-1.081-0.484-1.081-1.081V189.05c0-0.597,0.484-1.081,1.081-1.081
						s1.081,0.484,1.081,1.081v20.675h11.831c0.597,0,1.081,0.484,1.081,1.081S165.363,211.887,164.767,211.887z"/>
				</g>
			</g>
		</g>
	</g>
	<g>
		<g>
			<g>
				<g>
					<circle fill="#CA434B" cx="302.5" cy="181.5" r="60.5"/>
				</g>
			</g>
		</g>
		<g>
			<g>
				<path fill="#FFF8EE" d="M299.523,208.45c-5.733,0-6.937-3.47-6.937-6.38s1.203-6.38,6.937-6.38c4.473,0,6.937,2.266,6.937,6.38
					C306.46,204.98,305.257,208.45,299.523,208.45z M299.523,197.851c-3.303,0-4.776,1.301-4.776,4.219s1.473,4.22,4.776,4.22
					c3.303,0,4.776-1.302,4.776-4.22S302.826,197.851,299.523,197.851z M303.811,194.341c-0.001,0-0.003,0-0.004,0h-8.179
					c-0.477,0-0.897-0.312-1.035-0.768c-0.496-1.646-0.748-3.029-0.748-4.111c0-1.079,0.2-2.204,0.612-3.439
					c0.003-0.009,0.006-0.019,0.01-0.028c0.473-1.299,1.471-2.704,2.968-4.176c1.467-1.468,3.016-2.736,4.597-3.766
					c1.451-0.944,2.725-2.096,3.787-3.423c1.015-1.244,1.505-2.54,1.505-3.972c0-1.953-0.694-4.195-6.107-4.195
					c-1.582,0-3.122,0.272-4.585,0.811c-0.196,2.32-0.667,4.153-1.431,5.586c-0.188,0.352-0.555,0.572-0.954,0.572h-6.679
					c-0.403,0-0.772-0.224-0.958-0.582c-0.648-1.247-1.128-2.829-1.509-4.98c-0.347-2.107-0.5-3.407-0.5-4.23v-1.621
					c0-0.356,0.175-0.689,0.469-0.891c2.058-1.413,4.673-2.532,7.773-3.326c3.033-0.777,5.973-1.171,8.738-1.171
					c5.399,0,9.917,1.264,13.427,3.757c3.625,2.575,5.464,6.291,5.464,11.044c0,2.074-0.454,4.022-1.351,5.789
					c-0.872,1.717-1.969,3.148-3.263,4.253c-1.195,1-2.475,2.016-3.921,3.112l-0.305,0.225c-1.259,0.927-2.448,1.803-3.523,2.61
					c-0.012,0.009-0.024,0.018-0.037,0.026c-2.192,1.504-3.258,3.192-3.258,5.159c0,0.101,0.012,0.221,0.036,0.357
					c0.026,0.094,0.041,0.194,0.041,0.296C304.892,193.858,304.408,194.341,303.811,194.341z M296.444,192.181h6.222
					c0.142-2.509,1.541-4.694,4.165-6.5c1.078-0.809,2.265-1.683,3.521-2.608l0.293-0.216c1.406-1.067,2.659-2.062,3.819-3.032
					c1.067-0.912,1.989-2.119,2.73-3.581c0.742-1.461,1.117-3.08,1.117-4.811c0-4.07-1.49-7.106-4.554-9.283
					c-3.138-2.229-7.234-3.358-12.176-3.358c-2.584,0-5.344,0.372-8.202,1.104c-2.618,0.67-4.841,1.58-6.617,2.705v1.04
					c0,0.691,0.149,1.919,0.47,3.866c0.28,1.58,0.61,2.8,1.022,3.766h5.315c0.523-1.226,0.837-2.81,0.957-4.816
					c0.024-0.41,0.279-0.77,0.656-0.93c1.912-0.812,3.942-1.223,6.037-1.223c6.833,0,8.268,3.456,8.268,6.355
					c0,1.95-0.65,3.693-1.986,5.33c-1.199,1.499-2.645,2.806-4.289,3.876c-1.455,0.947-2.886,2.121-4.254,3.489
					c-1.573,1.546-2.203,2.682-2.455,3.367c-0.334,1.006-0.496,1.903-0.496,2.742C296.006,189.97,296.088,190.833,296.444,192.181z"
					/>
			</g>
		</g>
	</g>
	<g>
		<g>
			<circle fill="#CA434B" cx="423.5" cy="181.5" r="60.5"/>
		</g>
		<g>
			<g>
				<path fill="#FFF8EE" d="M459.243,211.451h-71.486c-0.597,0-1.081-0.484-1.081-1.081v-57.765c0-0.597,0.484-1.081,1.081-1.081
					h71.486c0.597,0,1.081,0.484,1.081,1.081v57.765C460.324,210.967,459.84,211.451,459.243,211.451z M388.837,209.291h69.326
					v-55.605h-69.326V209.291z"/>
			</g>
			<g>
				<path fill="#FFF8EE" d="M451.015,196.713h-55.03c-0.597,0-1.081-0.484-1.081-1.081v-34.799c0-0.597,0.484-1.081,1.081-1.081
					h55.03c0.597,0,1.081,0.484,1.081,1.081v34.799C452.096,196.229,451.612,196.713,451.015,196.713z M397.065,194.552h52.87
					v-32.639h-52.87V194.552z"/>
			</g>
			<g>
				<path fill="#FFF8EE" d="M431.486,175.369c-2.61,0-4.734-2.124-4.734-4.734c0-2.61,2.124-4.734,4.734-4.734
					c2.611,0,4.735,2.124,4.735,4.734C436.221,173.245,434.097,175.369,431.486,175.369z M431.486,168.061
					c-1.419,0-2.574,1.155-2.574,2.574c0,1.419,1.155,2.574,2.574,2.574c1.419,0,2.574-1.154,2.574-2.574
					C434.06,169.215,432.905,168.061,431.486,168.061z"/>
			</g>
			<g>
				<path fill="#FFF8EE" d="M437.903,196.713c-0.001,0-0.003,0-0.004,0h-41.914c-0.597,0-1.081-0.484-1.081-1.081v-4.937
					c0-0.287,0.114-0.562,0.316-0.764l18.537-18.537c0.203-0.203,0.478-0.316,0.764-0.316c0,0,0,0,0.001,0
					c0.287,0,0.562,0.115,0.765,0.318l23.321,23.418c0.229,0.198,0.375,0.491,0.375,0.818
					C438.983,196.229,438.5,196.713,437.903,196.713z M397.065,194.552h38.233l-20.778-20.864l-17.456,17.455V194.552z"/>
			</g>
			<g>
				<path fill="#FFF8EE" d="M451.015,196.713h-13.116c-0.288,0-0.564-0.115-0.767-0.319l-6.994-7.042
					c-0.203-0.205-0.316-0.482-0.314-0.771c0.002-0.288,0.12-0.564,0.327-0.765l7.914-7.696c0.425-0.413,1.102-0.407,1.52,0.013
					l12.197,12.27c0.201,0.202,0.314,0.476,0.314,0.762v2.468C452.096,196.229,451.612,196.713,451.015,196.713z M438.349,194.552
					h11.586v-0.942l-11.129-11.196l-6.365,6.189L438.349,194.552z"/>
			</g>
		</g>
		<g>
			<path fill="#FFF8EE" d="M404.938,203.61h-8.47c-0.597,0-1.081-0.484-1.081-1.081s0.484-1.08,1.081-1.08h8.47
				c0.597,0,1.081,0.483,1.081,1.08S405.535,203.61,404.938,203.61z"/>
		</g>
		<g>
			<path fill="#FFF8EE" d="M414.546,203.61h-4.84c-0.597,0-1.081-0.484-1.081-1.081s0.484-1.08,1.081-1.08h4.84
				c0.597,0,1.081,0.483,1.081,1.08S415.143,203.61,414.546,203.61z"/>
		</g>
	</g>
	<g>
		<g>
			<circle fill="#CA434B" cx="544.5" cy="181.5" r="60.5"/>
		</g>
		<g>
			<path fill="#FFF8EE" d="M580.243,211.451h-71.486c-0.597,0-1.081-0.484-1.081-1.081v-57.765c0-0.597,0.484-1.081,1.081-1.081
				h71.486c0.597,0,1.081,0.484,1.081,1.081v57.765C581.324,210.967,580.84,211.451,580.243,211.451z M509.837,209.291h69.326
				v-55.605h-69.326V209.291z"/>
		</g>
		<g>
			<path fill="#FFF8EE" d="M572.016,196.713h-55.031c-0.596,0-1.08-0.484-1.08-1.081v-34.799c0-0.597,0.484-1.081,1.08-1.081h55.031
				c0.597,0,1.08,0.484,1.08,1.081v34.799C573.096,196.229,572.612,196.713,572.016,196.713z M518.064,194.553h52.871v-32.639
				h-52.871V194.553z"/>
		</g>
		<g>
			<path fill="#FFF8EE" d="M525.697,203.852h-8.471c-0.597,0-1.08-0.483-1.08-1.08s0.483-1.081,1.08-1.081h8.471
				c0.596,0,1.08,0.484,1.08,1.081S526.293,203.852,525.697,203.852z"/>
		</g>
		<g>
			<path fill="#FFF8EE" d="M535.305,203.852h-4.841c-0.597,0-1.08-0.483-1.08-1.08s0.483-1.081,1.08-1.081h4.841
				c0.596,0,1.08,0.484,1.08,1.081S535.9,203.852,535.305,203.852z"/>
		</g>
		<g>
			<g>
				<path fill="#FFF8EE" d="M523.204,182.371h2.687v-7.938h-2.275v-1.549c1.259-0.242,2.13-0.557,2.904-1.041h1.839v10.527h2.348
					v2.009h-7.502V182.371z"/>
			</g>
			<g>
				<path fill="#FFF8EE" d="M532.23,182.904l1.162-1.597c0.701,0.702,1.597,1.282,2.758,1.282c1.308,0,2.227-0.823,2.227-2.299
					c0-1.452-0.847-2.275-2.129-2.275c-0.75,0-1.162,0.194-1.888,0.654l-1.138-0.75l0.339-6.074h6.704v2.081h-4.551l-0.242,2.662
					c0.484-0.242,0.944-0.363,1.501-0.363c2.105,0,3.872,1.258,3.872,3.993c0,2.808-2.057,4.405-4.38,4.405
					C534.48,184.622,533.174,183.848,532.23,182.904z"/>
			</g>
			<g>
				<path fill="#FFF8EE" d="M542.516,179.661c0-3.17,2.275-5.009,4.84-5.009c1.162,0,2.057,0.46,2.759,1.041l-1.186,1.622
					c-0.484-0.411-0.92-0.629-1.452-0.629c-1.452,0-2.42,1.162-2.42,2.976c0,1.791,0.992,2.928,2.348,2.928
					c0.678,0,1.33-0.314,1.839-0.774l0.992,1.646c-0.896,0.798-2.057,1.162-3.098,1.162
					C544.524,184.622,542.516,182.783,542.516,179.661z"/>
			</g>
			<g>
				<path fill="#FFF8EE" d="M552.026,174.894h2.032l0.17,1.283h0.072c0.799-0.823,1.67-1.5,2.904-1.5
					c1.355,0,2.154,0.605,2.613,1.67c0.871-0.92,1.791-1.67,3.025-1.67c2.009,0,2.952,1.428,2.952,3.823v5.881h-2.492v-5.614
					c0-1.452-0.437-1.984-1.331-1.984c-0.533,0-1.162,0.363-1.84,1.065v6.534h-2.492v-5.614c0-1.452-0.436-1.984-1.331-1.984
					c-0.532,0-1.161,0.363-1.839,1.065v6.534h-2.469v-9.486H552.026z"/>
			</g>
		</g>
	</g>
	<g>
		<g>
			<circle fill="#CA434B" cx="664.5" cy="181.5" r="60.5"/>
		</g>
		<g>
			<path fill="#FFF8EE" d="M700.243,211.451h-71.486c-0.597,0-1.081-0.484-1.081-1.081v-57.765c0-0.597,0.484-1.081,1.081-1.081
				h71.486c0.597,0,1.081,0.484,1.081,1.081v57.765C701.324,210.967,700.84,211.451,700.243,211.451z M629.837,209.291h69.326
				v-55.605h-69.326V209.291z"/>
		</g>
		<g>
			<path fill="#FFF8EE" d="M692.016,196.713h-55.031c-0.596,0-1.08-0.484-1.08-1.081v-34.799c0-0.597,0.484-1.081,1.08-1.081h55.031
				c0.597,0,1.08,0.484,1.08,1.081v34.799C693.096,196.229,692.612,196.713,692.016,196.713z M638.064,194.553h52.871v-32.639
				h-52.871V194.553z"/>
		</g>
		<g>
			<path fill="#FFF8EE" d="M645.697,204.094h-8.471c-0.597,0-1.08-0.483-1.08-1.081c0-0.596,0.483-1.08,1.08-1.08h8.471
				c0.596,0,1.08,0.484,1.08,1.08C646.777,203.611,646.293,204.094,645.697,204.094z"/>
		</g>
		<g>
			<path fill="#FFF8EE" d="M655.305,204.094h-4.841c-0.597,0-1.08-0.483-1.08-1.081c0-0.596,0.483-1.08,1.08-1.08h4.841
				c0.596,0,1.08,0.484,1.08,1.08C656.385,203.611,655.9,204.094,655.305,204.094z"/>
		</g>
		<g>
			<g>
				<path fill="#FFF8EE" d="M642.938,183.073c3.412-3.049,5.421-5.396,5.421-7.333c0-1.283-0.702-2.033-1.888-2.033
					c-0.919,0-1.67,0.605-2.299,1.283l-1.355-1.355c1.162-1.21,2.275-1.888,3.993-1.888c2.372,0,3.944,1.524,3.944,3.872
					c0,2.275-1.887,4.719-4.162,6.945c0.629-0.073,1.452-0.145,2.033-0.145h2.734v2.105h-8.397v-1.452H642.938z"/>
			</g>
			<g>
				<path fill="#FFF8EE" d="M652.933,178.185c0-4.332,1.694-6.461,4.259-6.461c2.541,0,4.235,2.13,4.235,6.461
					c0,4.332-1.694,6.559-4.235,6.559C654.627,184.743,652.933,182.492,652.933,178.185z M659.055,178.185
					c0-3.509-0.822-4.525-1.887-4.525c-1.09,0-1.889,1.017-1.889,4.525c0,3.533,0.823,4.598,1.889,4.598
					C658.256,182.783,659.055,181.718,659.055,178.185z"/>
			</g>
			<g>
				<path fill="#FFF8EE" d="M662.902,179.782c0-3.17,2.275-5.01,4.84-5.01c1.162,0,2.058,0.46,2.76,1.041l-1.186,1.622
					c-0.484-0.412-0.92-0.629-1.453-0.629c-1.451,0-2.42,1.162-2.42,2.977c0,1.791,0.992,2.928,2.348,2.928
					c0.678,0,1.331-0.314,1.84-0.774l0.992,1.646c-0.896,0.798-2.058,1.162-3.098,1.162
					C664.912,184.743,662.902,182.904,662.902,179.782z"/>
			</g>
			<g>
				<path fill="#FFF8EE" d="M672.438,175.015h2.033l0.169,1.283h0.073c0.798-0.823,1.67-1.5,2.903-1.5
					c1.355,0,2.153,0.605,2.614,1.669c0.871-0.919,1.79-1.669,3.024-1.669c2.009,0,2.952,1.428,2.952,3.824v5.904h-2.492v-5.614
					c0-1.452-0.436-1.984-1.331-1.984c-0.532,0-1.161,0.363-1.839,1.065v6.534h-2.493v-5.614c0-1.452-0.436-1.984-1.331-1.984
					c-0.532,0-1.161,0.363-1.839,1.065v6.534h-2.468v-9.51H672.438z"/>
			</g>
		</g>
	</g>
	<g>
		<g>
			<circle fill="#CA434B" cx="785.5" cy="181.5" r="60.5"/>
		</g>
		<g>
			<path fill="#FFF8EE" d="M821.243,211.693h-71.486c-0.597,0-1.081-0.484-1.081-1.081v-57.765c0-0.597,0.484-1.081,1.081-1.081
				h71.486c0.597,0,1.081,0.484,1.081,1.081v57.765C822.324,211.209,821.84,211.693,821.243,211.693z M750.837,209.532h69.326
				v-55.605h-69.326V209.532z"/>
		</g>
		<g>
			<path fill="#FFF8EE" d="M813.016,196.955h-55.031c-0.596,0-1.08-0.484-1.08-1.081v-34.799c0-0.597,0.484-1.081,1.08-1.081h55.031
				c0.597,0,1.08,0.484,1.08,1.081v34.799C814.096,196.471,813.612,196.955,813.016,196.955z M759.064,194.794h52.871v-32.639
				h-52.871V194.794z"/>
		</g>
		<g>
			<path fill="#FFF8EE" d="M766.213,204.094h-8.471c-0.596,0-1.08-0.484-1.08-1.081s0.484-1.081,1.08-1.081h8.471
				c0.597,0,1.08,0.484,1.08,1.081S766.81,204.094,766.213,204.094z"/>
		</g>
		<g>
			<path fill="#FFF8EE" d="M775.82,204.094h-4.84c-0.598,0-1.081-0.484-1.081-1.081s0.483-1.081,1.081-1.081h4.84
				c0.597,0,1.08,0.484,1.08,1.081S776.417,204.094,775.82,204.094z"/>
		</g>
		<g>
			<g>
				<path fill="#FFF8EE" d="M770.593,171.312h3.921c4.38,0,7.09,2.275,7.09,7.115c0,4.816-2.71,7.212-6.921,7.212h-4.09V171.312z
					 M774.344,183.339c2.662,0,4.332-1.428,4.332-4.913c0-3.509-1.67-4.815-4.332-4.815h-0.896v9.729H774.344z"/>
			</g>
			<g>
				<path fill="#FFF8EE" d="M784.411,171.312h2.855v14.327h-2.855V171.312z"/>
			</g>
			<g>
				<path fill="#FFF8EE" d="M793.22,180.387l-4.283-9.075h3.049l1.429,3.485c0.41,1.065,0.798,2.081,1.233,3.17h0.073
					c0.436-1.113,0.871-2.105,1.282-3.17l1.428-3.485h2.977l-4.308,9.075v5.251h-2.855v-5.251H793.22z"/>
			</g>
		</g>
	</g>
	<g>
		<g>
			<defs>
				<rect id="SVGID_1_" y="242" width="121" height="105"/>
			</defs>
			<clipPath id="SVGID_2_">
				<use xlink:href="#SVGID_1_"  overflow="visible"/>
			</clipPath>
			<path clip-path="url(#SVGID_2_)" fill="#CA434B" d="M120.558,243.641c-0.592-1.015-1.68-1.641-2.86-1.641H3.302
				c-1.18,0-2.27,0.626-2.861,1.641c-0.589,1.015-0.589,2.267,0,3.281l57.198,98.438c0.589,1.014,1.68,1.641,2.859,1.641
				c1.18,0,2.27-0.627,2.86-1.641l57.197-98.438C121.148,245.907,121.148,244.655,120.558,243.641"/>
		</g>
	</g>
	<g>
		<g>
			<defs>
				<rect id="SVGID_3_" x="121" y="242" width="121" height="105"/>
			</defs>
			<clipPath id="SVGID_4_">
				<use xlink:href="#SVGID_3_"  overflow="visible"/>
			</clipPath>
			<path clip-path="url(#SVGID_4_)" fill="#F5B1A2" d="M241.558,243.641c-0.592-1.015-1.68-1.641-2.86-1.641H124.302
				c-1.18,0-2.27,0.626-2.861,1.641c-0.589,1.015-0.589,2.267,0,3.281l57.198,98.438c0.589,1.015,1.68,1.641,2.859,1.641
				c1.18,0,2.27-0.626,2.86-1.641l57.197-98.438C242.148,245.907,242.148,244.655,241.558,243.641"/>
		</g>
	</g>
	<g>
		<path fill="#FFF8EE" d="M364.341,242c0.343,0,0.687,0.131,0.947,0.392l59.32,59.163c0.523,0.522,0.523,1.369,0,1.891
			l-59.32,59.163c-0.523,0.522-1.372,0.522-1.895,0c-0.524-0.522-0.524-1.368,0-1.89l58.372-58.219l-58.372-58.219
			c-0.524-0.521-0.524-1.367,0-1.89C363.654,242.131,363.998,242,364.341,242z"/>
	</g>
	<g>
		<path fill="#FFF8EE" d="M302.659,363c-0.343,0-0.687-0.131-0.947-0.392l-59.32-59.163c-0.523-0.522-0.523-1.369,0-1.891
			l59.32-59.163c0.523-0.522,1.372-0.522,1.895,0c0.524,0.522,0.524,1.368,0,1.89L245.235,302.5l58.372,58.219
			c0.524,0.521,0.524,1.367,0,1.89C303.346,362.869,303.002,363,302.659,363z"/>
	</g>
</g>
<g id="Layer_2">
</g>
</svg>
